<svg width="200" height="200" viewBox="0 0 200 200" fill="none" xmlns="http://www.w3.org/2000/svg">
<g clip-path="url(#clip0_205_4995)">
<path d="M200 148V151.2C198.996 151.284 197.996 151.368 196.408 151.5C197.856 152.992 198.928 154.096 200 155.2V164.8C195.692 168.416 194.356 173.876 191.136 178.464C194.792 178.736 197.388 177.14 200 175.6V181.2H190.98C193.492 184.872 196.008 187.412 200 188V191.2C198.996 191.28 197.996 191.356 196.404 191.484C197.856 192.984 198.928 194.092 200 195.2V200H196.4C196.2 193.332 191.668 188.624 188.796 183.048C188.052 184.644 187.488 186.192 187.2 187.788C186.384 192.328 188.076 196.256 190.396 199.996H187.196C185.98 197.656 184.764 195.32 183.376 192.648C182.06 195.2 181.312 197.464 181.596 199.996H129.596C129.704 193.22 124.844 188.64 122.268 182.576C119.832 187.516 119.744 191.968 121.824 196.464C122.376 197.66 123.004 198.82 123.6 200H120.8C119.46 197.672 118.12 195.34 116.78 193.012L116.084 192.98C115.656 195.32 115.228 197.66 114.804 200H63.2C62.696 193.428 58.432 188.58 55.584 182.656C53.956 185.872 53.112 188.836 53.856 191.876C54.536 194.656 55.796 197.296 56.8 200H54C52.724 197.668 51.448 195.336 50.176 193.008C49.928 193.04 49.68 193.076 49.432 193.108C48.956 195.404 48.476 197.704 48 200H-2.83206e-05V195.6C6.01197 200.092 12.916 198.244 19.68 198.676C18.116 195.008 14.248 192.048 10.132 191.608C6.77997 191.248 3.37997 191.32 -2.83206e-05 191.2V188.4H14.272C12.292 185.156 9.74797 182.916 6.27597 182.012C4.25197 181.484 2.09597 181.452 -2.83206e-05 181.2V175.2C4.26797 171.532 5.68397 166.108 8.87597 161.46C5.22397 161.276 2.59197 162.788 -2.83206e-05 164.4V155.6C6.00797 160.104 12.912 158.268 20.028 158.7C17.484 154.608 14.38 152.148 10.132 151.62C6.78797 151.208 3.37997 151.32 -2.83206e-05 151.2V148.4H14.26C12.296 145.16 9.74797 142.92 6.27597 142.016C4.25197 141.488 2.09597 141.456 -2.83206e-05 141.2V135.2C4.27197 131.536 5.68397 126.108 8.89597 121.44C5.23597 121.32 2.58797 122.764 -2.83206e-05 124.4V115.6C6.00397 120.116 12.908 118.28 20.024 118.712C17.484 114.612 14.376 112.156 10.132 111.628C6.78797 111.212 3.37997 111.324 -2.83206e-05 111.2V108.4H14.256C12.304 105.156 9.73997 102.936 6.27597 102.02C4.25197 101.484 2.09597 101.456 -0.00402832 101.2V95.2C4.28397 91.556 5.65597 86.108 8.89197 81.46C5.23197 81.308 2.59597 82.788 -2.83206e-05 84.4V75.6C5.99997 80.132 12.908 78.284 20 78.724C16.916 73.708 12.856 71.464 7.56397 71.336C5.04397 71.276 2.51997 71.244 -2.83206e-05 71.204V68.404H14.26C12.304 65.164 9.73997 62.948 6.27997 62.032C4.25197 61.492 2.09597 61.46 -2.83206e-05 61.2V55.2C4.29197 51.56 5.65997 46.112 8.87597 41.496C5.21997 41.272 2.60797 42.828 -2.83206e-05 44.4V35.6C5.99597 40.144 12.908 38.292 20.012 38.732C16.96 33.792 12.98 31.52 7.75997 31.348C5.17597 31.264 2.58797 31.248 -2.83206e-05 31.2V28.4H14.22C12.316 25.152 9.73597 22.956 6.27597 22.032C4.25597 21.492 2.09597 21.46 -2.83206e-05 21.2V15.2C4.29997 11.576 5.64797 6.124 8.88397 1.496C5.21997 1.296 2.59997 2.82 -2.83206e-05 4.4V0H48C48.304 6.604 52.728 11.348 55.448 17.22C55.808 16.644 55.968 16.448 56.064 16.224C56.324 15.612 56.592 15 56.788 14.368C58.424 9.084 56.892 4.408 54 0H57.2C58.432 2.328 59.664 4.656 61.052 7.276C62.4 4.784 63.152 2.532 62.8 0H114.8C114.984 1.38 114.844 2.912 115.408 4.116C117.452 8.496 119.732 12.764 121.924 17.076L122.648 17.02C123.112 15.116 123.716 13.232 124.004 11.304C124.632 7.084 122.736 3.524 120.8 0H124L127.564 7.032L128.42 6.928L129.6 0C146.932 0 164.268 0 181.6 0C181.712 1.248 181.504 2.644 181.996 3.72C184.056 8.224 186.324 12.632 188.752 17.552C190.548 14.028 191.344 10.932 190.54 7.764C189.864 5.1 188.604 2.584 187.6 0C188.532 0 189.468 0 190.4 0C191.7 2.332 192.996 4.664 194.296 6.996L195.032 6.912C195.488 4.608 195.944 2.304 196.4 0H200V4.8C195.724 8.46 194.32 13.888 191.104 18.556C194.764 18.688 197.408 17.22 200 15.6V21.2H191.032C193.472 24.928 196 27.444 200 28V31.2L196.432 31.56C197.856 33.012 198.928 34.108 200 35.2V44.8C195.712 48.444 194.34 53.892 191.1 58.54C194.764 58.684 197.404 57.216 200 55.6V61.2H191.036C193.464 64.924 196.004 67.428 200 68V71.2C198.996 71.292 197.996 71.388 196.42 71.536C197.852 73.004 198.928 74.104 200 75.2V84.8C195.704 88.436 194.344 93.892 191.12 98.5C194.776 98.72 197.392 97.172 200 95.6V101.2H190.952C193.516 104.852 195.972 107.468 200 108V111.2C198.996 111.288 197.996 111.376 196.412 111.512C197.86 113 198.932 114.1 200 115.2V124.8C195.7 128.424 194.356 133.88 191.132 138.476C194.792 138.736 197.392 137.148 200 135.6V141.2H190.968C193.5 144.864 195.988 147.436 200 148ZM113.936 168.892C113.992 168.656 114.048 168.42 114.104 168.184C112.176 164.884 109.352 162.376 105.568 161.844C100.96 161.196 96.24 161.332 90.996 161.104C93.296 164.876 95.908 167.452 99.568 167.984C104.3 168.672 109.144 168.624 113.936 168.892ZM119.768 178.304C117.472 174.588 114.384 172.096 110.192 171.644C106.244 171.216 102.228 171.388 98.24 171.32C97.824 171.312 97.404 171.452 96.932 171.532C98.872 175.04 102.068 177.86 105.824 178.208C110.344 178.628 114.928 178.308 119.764 178.308L119.768 178.304ZM53.152 98.428C51.428 95.5 49.164 93.432 46.128 92.328C40.984 90.46 35.676 91.672 29.976 91.256C32.532 95.4 35.656 97.968 39.924 98.344C44.196 98.72 48.528 98.428 53.152 98.428ZM153.128 118.404C151.476 115.548 149.252 113.52 146.312 112.388C141.116 110.388 135.736 111.688 129.98 111.248C132.472 115.352 135.556 117.908 139.728 118.312C144.06 118.728 148.464 118.404 153.124 118.404H153.128ZM53.156 138.424C51.424 135.496 49.16 133.424 46.128 132.32C40.984 130.452 35.676 131.66 29.98 131.252C32.528 135.4 35.664 137.956 39.924 138.336C44.196 138.72 48.528 138.42 53.16 138.42L53.156 138.424ZM97.02 11.556C98.404 14.432 101.152 16.916 104.408 17.896C109.396 19.4 114.496 18.42 120.02 18.732C117.436 14.548 114.252 12 109.904 11.632C105.692 11.28 101.424 11.556 97.016 11.556H97.02ZM153.048 198.272C151.096 194.92 148.284 192.38 144.48 191.848C139.872 191.204 135.152 191.328 129.976 191.1C132.268 195.172 135.2 197.712 139.068 198.152C143.628 198.672 148.296 198.272 153.048 198.272ZM114.168 88.948C112.844 85.464 109.436 82.356 105.572 81.848C100.952 81.244 96.24 81.348 91.38 81.136C92.712 84.424 95.712 87.384 99.384 87.94C104.172 88.668 109.08 88.636 114.168 88.948ZM57.96 61.588C60.292 65.372 63.42 67.88 67.708 68.372C71.064 68.76 74.484 68.6 77.876 68.672C78.832 68.692 79.784 68.672 81.1 68.672C78.636 64.66 75.556 62.068 71.364 61.676C67.028 61.268 62.628 61.584 57.96 61.584V61.588ZM97.008 51.568C98.388 54.336 100.776 56.544 103.872 57.668C109.02 59.536 114.328 58.332 120.028 58.736C117.48 54.588 114.344 52.032 110.08 51.652C105.808 51.268 101.472 51.568 97.008 51.568ZM96.856 131.624C99.204 135.36 102.316 137.952 106.608 138.352C110.828 138.744 115.104 138.528 119.356 138.564C119.428 138.564 119.504 138.372 119.66 138.156C117.592 134.7 114.596 132.152 110.604 131.732C106.156 131.264 101.624 131.624 96.86 131.624H96.856ZM114.22 48.38C112.48 45.38 110.124 43.308 107.016 42.248C101.928 40.512 96.688 41.648 91.332 41.284C93.136 44.98 96.764 47.992 100.612 48.296C105.012 48.648 109.46 48.376 114.224 48.376L114.22 48.38ZM130.496 151.12L130.32 151.792C132.528 155.432 135.704 157.94 140.024 158.356C144.176 158.756 148.388 158.548 152.572 158.588C152.712 158.588 152.856 158.392 153.064 158.236C151.028 154.924 148.268 152.368 144.5 151.852C139.884 151.22 135.168 151.332 130.496 151.12ZM91.336 1.68C93.624 5.376 96.7 7.924 100.888 8.344C105.16 8.772 109.5 8.544 113.808 8.588C113.876 8.588 113.944 8.384 114.088 8.156C112.072 4.772 109.132 2.224 105.236 1.796C100.736 1.3 96.14 1.68 91.34 1.68H91.336ZM124.908 21.104C126.692 25.112 129.536 27.624 133.336 28.156C137.956 28.8 142.684 28.664 147.868 28.884C145.596 25.132 142.984 22.532 139.3 22.004C134.556 21.324 129.712 21.372 124.908 21.104ZM53.156 178.4C50.82 174.612 47.7 172.096 43.416 171.62C39.864 171.224 36.252 171.388 32.664 171.308C31.912 171.292 31.164 171.308 30.016 171.308C32.48 175.356 35.576 177.908 39.748 178.308C44.08 178.724 48.48 178.4 53.156 178.4ZM53.144 18.396C50.764 14.564 47.58 12.004 43.204 11.616C39.112 11.252 34.972 11.436 30.852 11.396C30.7 11.396 30.548 11.58 30.396 11.672C32.136 15.096 35.732 18.028 39.58 18.32C43.984 18.656 48.436 18.396 53.144 18.396ZM153.412 78.932C151.3 75.248 148.816 72.716 145.416 72.156C140.508 71.352 135.468 71.36 130.484 71.02C130.428 71.276 130.368 71.536 130.312 71.792C132.192 74.952 134.856 77.484 138.52 78.008C143.26 78.692 148.104 78.636 153.408 78.924L153.412 78.932ZM113.928 128.92C113.988 128.676 114.044 128.432 114.104 128.188C112.18 124.884 109.356 122.38 105.568 121.852C100.96 121.208 96.24 121.34 91.38 121.124C92.684 124.396 95.7 127.376 99.372 127.928C104.164 128.652 109.072 128.624 113.928 128.92ZM158.064 41.708C160.044 45.12 162.932 47.732 166.812 48.172C171.372 48.692 176.04 48.292 180.832 48.292C178.816 44.88 175.936 42.264 172.052 41.828C167.484 41.316 162.816 41.708 158.06 41.708H158.064ZM24.832 81.568C26.18 84.468 28.996 87.344 32.424 87.868C37.348 88.62 42.388 88.632 47.38 88.96C45.284 84.64 42.172 82.032 37.896 81.652C33.624 81.268 29.288 81.568 24.832 81.568ZM47.572 8.372C45.2 4.564 42.012 2.016 37.628 1.608C33.732 1.244 29.784 1.408 25.86 1.36C25.512 1.356 25.164 1.508 24.656 1.628C26.852 5.292 29.848 7.852 33.848 8.268C38.296 8.732 42.832 8.376 47.568 8.376L47.572 8.372ZM80.9 28.428C78.896 24.996 76.156 22.452 72.408 21.928C67.724 21.268 62.936 21.364 57.636 21.108C60.28 25.332 63.352 27.968 67.628 28.348C71.908 28.728 76.248 28.432 80.896 28.432L80.9 28.428ZM157.94 81.632C160.388 85.408 163.54 88 167.936 88.396C171.836 88.748 175.784 88.6 179.708 88.652C180.056 88.656 180.404 88.512 180.904 88.4C178.72 84.728 175.724 82.16 171.72 81.736C167.268 81.264 162.728 81.628 157.94 81.628V81.632ZM30.24 51.596C31.976 54.712 34.432 56.8 37.62 57.832C42.652 59.464 47.84 58.388 53.36 58.728C50.88 54.704 47.824 52.092 43.644 51.688C39.316 51.272 34.916 51.596 30.24 51.596ZM119.516 98.968C119.568 98.716 119.62 98.46 119.672 98.208C117.74 94.88 114.896 92.3 111.096 91.868C106.476 91.344 101.752 91.744 96.984 91.744C98.684 94.756 101.184 97.28 104.58 97.836C109.488 98.644 114.528 98.632 119.512 98.968H119.516ZM24.912 41.048L24.756 41.78C26.664 45.028 29.416 47.556 33.152 48.084C37.832 48.748 42.62 48.656 47.884 48.916C45.684 45.236 43.176 42.656 39.672 42.108C34.816 41.348 29.836 41.364 24.908 41.048H24.912ZM47.648 128.932C46.004 125.464 43.164 122.616 39.652 122.088C34.792 121.352 29.824 121.348 24.616 121.016C26.164 124.54 29.088 127.408 32.784 127.956C37.588 128.672 42.504 128.632 47.652 128.936L47.648 128.932ZM147.58 68.388C145.216 64.572 142.032 62.04 137.652 61.604C134.024 61.24 130.344 61.4 126.688 61.332C126.072 61.32 125.456 61.332 124.476 61.332C126.872 65.316 129.916 67.876 134.004 68.292C138.396 68.736 142.868 68.392 147.58 68.392V68.388ZM147.58 148.38C145.26 144.616 142.14 142.084 137.848 141.624C134.16 141.228 130.408 141.392 126.688 141.316C126.072 141.304 125.456 141.316 124.484 141.316C126.864 145.308 129.92 147.864 134 148.284C138.392 148.736 142.868 148.388 147.58 148.388V148.38ZM147.492 108.288C145.54 104.96 142.748 102.4 138.936 101.868C134.316 101.224 129.592 101.344 124.376 101.108C126.716 105.144 129.616 107.728 133.492 108.164C138.056 108.68 142.728 108.284 147.488 108.284L147.492 108.288ZM153.124 38.432C151.3 35.248 148.768 33.068 145.412 32.076C140.492 30.62 135.444 31.592 129.976 31.292C132.516 35.404 135.632 37.972 139.896 38.348C144.172 38.728 148.512 38.432 153.128 38.432H153.124ZM157.956 121.568C160.004 124.948 162.7 127.54 166.464 128.064C171.148 128.716 175.932 128.632 180.676 128.868C178.616 124.62 175.496 122.04 171.236 121.652C166.952 121.264 162.608 121.568 157.956 121.568ZM124.648 181.624C127.044 185.468 130.248 187.968 134.616 188.388C138.38 188.748 142.192 188.588 145.984 188.636C146.468 188.644 146.956 188.528 147.612 188.448C145.384 184.752 142.412 182.152 138.4 181.732C133.956 181.268 129.424 181.624 124.648 181.624ZM57.96 101.572C59.996 104.956 62.7 107.544 66.46 108.068C71.144 108.724 75.928 108.644 80.668 108.88C78.612 104.628 75.5 102.048 71.24 101.66C66.956 101.272 62.612 101.576 57.96 101.576V101.572ZM57.948 141.564C59.972 144.872 62.588 147.476 66.28 148C71.024 148.676 75.872 148.624 80.676 148.888L80.82 148.196C78.608 144.62 75.496 142.028 71.228 141.648C66.944 141.264 62.604 141.564 57.948 141.564ZM158.068 161.688C160.04 165.088 162.92 167.708 166.804 168.148C171.372 168.664 176.04 168.268 180.808 168.268C178.848 164.828 175.932 162.252 172.06 161.812C167.496 161.288 162.828 161.688 158.068 161.688ZM47.58 168.38C45.248 164.6 42.12 162.052 37.828 161.62C33.872 161.22 29.86 161.384 25.868 161.324C25.52 161.32 25.168 161.464 24.632 161.576C26.88 165.304 29.928 167.864 34.016 168.28C38.408 168.728 42.88 168.38 47.58 168.38ZM80.884 188.416C79.108 185.24 76.6 183.108 73.324 182.096C68.34 180.556 63.22 181.588 57.744 181.256C60.288 185.316 63.38 187.952 67.664 188.332C71.94 188.712 76.276 188.416 80.884 188.416ZM180.904 8.428C178.832 4.88 175.944 2.276 172.06 1.84C167.492 1.328 162.824 1.72 158.024 1.72C160.276 5.328 163.34 7.964 167.608 8.344C171.892 8.728 176.236 8.428 180.9 8.428H180.904ZM63.52 191.56C65.56 194.948 68.268 197.528 72.024 198.052C76.712 198.704 81.5 198.616 86.248 198.848C84.164 194.64 81.072 192.02 76.796 191.644C72.512 191.268 68.168 191.56 63.52 191.56ZM63.52 31.552C65.396 34.76 67.88 37.312 71.304 37.86C76.22 38.648 81.26 38.644 86.248 38.976L86.388 38.22C84.108 34.6 80.952 31.984 76.584 31.624C72.364 31.276 68.096 31.548 63.52 31.548V31.552ZM186.408 98.328C184.344 94.816 181.4 92.212 177.436 91.772C172.932 91.272 168.332 91.656 163.62 91.656C165.632 95.188 168.604 97.764 172.56 98.208C177.064 98.712 181.668 98.324 186.408 98.324V98.328ZM163.52 51.552C165.584 55.064 168.4 57.612 172.216 58.14C176.836 58.78 181.56 58.648 186.8 58.876C184.12 54.608 180.976 51.992 176.616 51.628C172.396 51.276 168.12 51.552 163.524 51.552H163.52ZM186.404 178.316C184.388 174.856 181.5 172.248 177.62 171.808C173.056 171.288 168.392 171.688 163.644 171.688C165.62 175.184 168.596 177.756 172.552 178.2C177.056 178.708 181.664 178.316 186.4 178.316H186.404ZM63.624 71.704C65.604 75.136 68.508 77.736 72.388 78.176C76.952 78.696 81.616 78.296 86.36 78.296C84.404 74.852 81.492 72.268 77.612 71.824C73.048 71.304 68.38 71.7 63.624 71.7V71.704ZM63.696 111.568C65.096 114.48 67.904 117.348 71.3 117.864C76.228 118.612 81.264 118.632 86.256 118.96L86.384 118.22C84.156 114.64 81.044 112.032 76.768 111.652C72.488 111.272 68.152 111.568 63.696 111.568ZM86.412 158.32C84.3 154.78 81.364 152.2 77.444 151.772C72.936 151.28 68.336 151.66 63.62 151.66C65.62 155.176 68.584 157.76 72.536 158.204C77.044 158.712 81.652 158.32 86.412 158.32ZM186.468 138.384C184.136 134.608 181.008 132.108 176.716 131.62C173.356 131.24 169.94 131.392 166.544 131.32C165.588 131.3 164.636 131.32 163.364 131.32C165.756 135.268 168.784 137.868 172.88 138.284C177.272 138.728 181.748 138.384 186.468 138.384ZM186.468 18.4C184.088 14.568 180.9 12.052 176.52 11.612C173.024 11.26 169.472 11.416 165.948 11.352C165.196 11.34 164.448 11.352 163.372 11.352C165.768 15.308 168.796 17.896 172.896 18.308C177.288 18.744 181.756 18.408 186.468 18.408V18.4ZM91.132 158.628C96.7 158.324 100.54 155.948 103.132 151.584C104.864 148.668 106.448 145.656 108.08 142.68C108.276 142.32 108.384 141.912 108.596 141.36C103.632 141.62 99.884 143.68 97.372 147.628C95.2 151.04 93.36 154.664 91.128 158.624L91.132 158.628ZM155.408 157.172C157.056 154.452 157.672 151.508 157.392 148.78C156.772 142.704 152.596 138.324 150.08 132.7C148.4 135.748 147.832 138.536 148.192 141.492C148.916 147.396 152.976 151.732 155.408 157.172ZM50.076 152.696C48.404 155.756 47.54 158.624 48.276 161.476C49.076 164.568 50.476 167.528 51.82 170.452C52.844 172.684 54.192 174.768 55.544 177.188C57.112 174.28 57.656 171.6 57.384 168.768C56.792 162.692 52.608 158.312 50.08 152.692L50.076 152.696ZM155.444 197.228C157.164 194.344 157.652 191.604 157.372 188.732C156.776 182.668 152.604 178.288 150.044 172.636C148.44 175.784 147.816 178.564 148.196 181.532C148.948 187.42 152.984 191.748 155.444 197.228ZM91.136 198.62C96.704 198.324 100.54 195.944 103.132 191.584C104.868 188.668 106.448 185.656 108.08 182.68C108.28 182.32 108.388 181.908 108.604 181.352C103.648 181.616 99.892 183.664 97.38 187.616C95.208 191.032 93.364 194.652 91.132 198.62H91.136ZM155.612 162.564C153.9 166.08 153.252 169.136 153.892 172.408C154.968 177.892 158.664 182.052 161.06 187.336C162.6 184.428 163.128 181.812 162.94 179.04C162.516 172.808 158.136 168.4 155.612 162.56V162.564ZM24.388 198.6C30.04 198.328 33.8 195.944 36.388 191.7C37.908 189.212 39.252 186.616 40.668 184.06C41.124 183.236 41.556 182.396 42.12 181.344C37.52 181.552 33.876 183.152 31.496 186.596C28.952 190.276 26.9 194.3 24.388 198.596V198.6ZM21.984 157.02L22.652 156.992C23.112 155.088 23.792 153.204 23.996 151.272C24.768 143.924 19.512 138.98 16.764 132.744C14.564 136.68 13.976 140.988 15.668 144.848C17.496 149.024 19.856 152.972 21.984 157.02ZM102.268 158.612C107.764 158.348 111.624 155.996 114.22 151.624C115.988 148.648 117.6 145.584 119.268 142.548C119.436 142.244 119.492 141.876 119.652 141.372C114.552 141.632 110.792 143.868 108.252 147.98C106.196 151.312 104.396 154.804 102.268 158.612ZM22.492 162.92L21.76 162.976C21.3 165.012 20.588 167.028 20.424 169.092C19.856 176.244 25 181.076 27.712 187.352C29.868 183.192 30.456 179.268 28.88 175.492C27.072 171.168 24.648 167.1 22.492 162.924V162.92ZM91.084 118.572C95.168 118.52 98.556 117.408 100.692 114.58C103.736 110.552 106.192 106.076 109.156 101.38C104.168 101.528 100.544 103.184 98.152 106.62C95.588 110.304 93.544 114.352 91.08 118.572H91.084ZM122.276 142.716C120.384 146.168 119.648 149.576 120.736 152.876C121.888 156.372 123.78 159.628 125.408 162.96C126.08 164.332 126.92 165.624 127.828 167.208C130.056 162.664 130.392 158.36 128.416 154.14C126.644 150.356 124.472 146.76 122.28 142.72L122.276 142.716ZM83.876 172.84C83.572 172.884 83.268 172.932 82.964 172.976C82.5 174.74 81.84 176.476 81.604 178.268C80.608 185.812 86 190.876 88.8 197.232C90.604 193.984 91.588 190.56 90.496 187.66C88.596 182.604 86.112 177.768 83.876 172.84ZM122.116 177.172C124.02 173.924 124.932 170.064 123.668 166.828C121.796 162.044 119.312 157.504 117.088 152.856C114.46 157.12 114.012 161.352 115.916 165.512C117.708 169.428 119.948 173.136 122.116 177.172ZM188.832 177.392C190.604 173.832 191.22 170.692 190.52 167.368C189.388 161.98 185.768 157.844 183.384 152.62C181.22 156.88 180.692 160.912 182.34 164.804C184.116 168.996 186.496 172.928 188.828 177.392H188.832ZM22.152 197.252C24.152 193.712 24.888 190.14 23.636 186.8C21.836 182 19.292 177.48 16.848 172.388C14.436 177.056 14.02 181.26 15.848 185.356C17.632 189.344 19.924 193.104 22.152 197.252ZM22.464 122.98L21.776 122.996C21.312 125.016 20.592 127.012 20.424 129.056C19.832 136.228 24.992 141.084 27.648 147.208C29.88 143.472 30.46 138.872 28.724 134.972C26.896 130.86 24.572 126.972 22.464 122.988V122.98ZM53.304 181.336C47.72 181.636 43.844 184.048 41.24 188.504C39.56 191.376 37.992 194.308 36.388 197.224C36.192 197.584 36.1 198 35.896 198.572C40.96 198.336 44.688 196.16 47.208 192.132C49.316 188.76 51.136 185.204 53.308 181.336H53.304ZM83.7 132.54C80.924 136.74 80.804 142.364 83.12 146.82C84.472 149.416 85.94 151.952 87.36 154.516C87.824 155.352 88.308 156.172 88.908 157.224C90.592 153.872 91.608 150.58 90.432 147.44C88.568 142.456 86.072 137.708 83.7 132.544V132.54ZM20.052 121.38C15.264 121.552 11.684 123.168 9.33197 126.548C6.73597 130.284 4.64797 134.368 2.25597 138.44C6.49197 138.584 10.6 136.844 12.928 133.412C15.448 129.692 17.532 125.676 20.048 121.376L20.052 121.38ZM116.928 112.976C116.652 113.008 116.376 113.04 116.1 113.076C115.664 115.196 114.96 117.304 114.844 119.444C114.456 126.424 119.476 131.18 122.08 137.176C124.28 133.608 124.908 129.016 123.216 125.156C121.388 120.98 119.044 117.028 116.924 112.98L116.928 112.976ZM42.172 141.404C38.244 141.44 34.872 142.516 32.772 145.26C29.672 149.308 27.192 153.828 24.448 158.148C29.664 158.404 33.388 156.324 35.908 152.428C38.132 148.992 39.976 145.308 42.176 141.404H42.172ZM55.604 142.568C53.9 146.104 53.248 149.164 53.896 152.436C54.98 157.912 58.664 162.068 61.036 167.264C62.668 164.432 63.124 161.792 62.936 159.032C62.512 152.804 58.136 148.396 55.604 142.572V142.568ZM108.912 61.396C104.092 61.532 100.432 63.28 97.996 66.828C95.5 70.464 93.504 74.444 91.088 78.624C95.9 78.444 99.58 76.744 102.016 73.18C104.504 69.536 106.504 65.564 108.916 61.396H108.912ZM91.156 38.6C95.048 38.532 98.372 37.532 100.436 34.844C103.576 30.752 106.12 26.204 108.916 21.852C103.696 21.62 99.952 23.64 97.44 27.564C95.232 31.012 93.368 34.676 91.156 38.6ZM142.208 161.416C138.352 161.416 135.316 162.632 132.884 165.044C129.096 168.8 127.456 173.896 124.444 178.592C129.368 178.432 133.024 176.616 135.46 173.016C137.904 169.404 139.876 165.476 142.208 161.42V161.416ZM155.504 37.364C158.04 32.304 158.072 27.732 155.776 23.196C154.28 20.24 152.584 17.38 150.968 14.488C150.7 14.008 150.364 13.568 150.004 13.024C148.42 15.744 147.82 18.808 148.204 21.616C149.008 27.48 153 31.796 155.508 37.364H155.504ZM135.468 178.564C139.748 178.504 143.144 177.3 145.304 174.408C148.288 170.416 150.68 165.988 153.56 161.372C148.876 161.492 145.32 162.932 143.012 166.14C140.284 169.936 138.116 174.132 135.468 178.56V178.564ZM86.744 41.392C82.18 41.52 78.6 42.98 76.272 46.236C73.56 50.028 71.408 54.22 68.928 58.38C72.852 58.712 77.064 57.016 79.428 53.608C82.052 49.828 84.192 45.708 86.748 41.392H86.744ZM21.692 117.076L22.424 116.836C24.312 113.264 24.872 109.368 23.384 105.68C21.608 101.28 19.116 97.168 16.772 92.616C14.88 96.088 13.968 99.464 15.136 102.636C16.956 107.584 19.472 112.276 21.692 117.076ZM121.996 96.996L122.632 97.004C123.096 95.112 123.78 93.248 123.992 91.328C124.808 83.952 119.476 79.012 116.732 72.636C114.452 77.012 114.016 81.176 115.776 85.204C117.552 89.264 119.9 93.076 121.996 96.996ZM50.132 112.908C48.46 115.52 47.8 118.724 48.192 121.58C49 127.46 52.976 131.788 55.512 137.34C57.896 132.608 58.14 128.268 56.14 124.008C54.392 120.284 52.236 116.752 50.136 112.908H50.132ZM50.068 72.564C48.452 75.832 47.804 78.612 48.196 81.592C48.972 87.464 52.984 91.784 55.496 97.356C57.072 94.308 57.66 91.6 57.368 88.708C56.768 82.688 52.572 78.348 50.064 72.564H50.068ZM68.852 18.66C74.52 18.32 78.352 15.948 80.924 11.58C82.64 8.664 84.236 5.68 85.868 2.716C86.064 2.36 86.168 1.952 86.376 1.408C81.752 1.592 78.092 3.364 75.664 6.976C73.24 10.584 71.256 14.484 68.848 18.66H68.852ZM155.472 77.332C157.112 74.3 157.652 71.62 157.38 68.788C156.796 62.708 152.596 58.336 150.076 52.708C148.4 55.768 147.828 58.556 148.192 61.512C148.92 67.412 152.976 71.748 155.472 77.332ZM27.736 27.328C29.864 23.216 30.452 19.288 28.876 15.516C27.072 11.188 24.644 7.124 22.3 2.58C20.016 7.064 19.576 11.268 21.388 15.36C23.156 19.352 25.468 23.108 27.732 27.328H27.736ZM88.868 162.636C86.476 167.732 86.364 172.372 88.768 176.984C90.304 179.928 91.968 182.808 93.592 185.708C93.832 186.136 94.156 186.512 94.564 187.08C96.816 182.44 97.044 177.988 94.856 173.6C93.084 170.04 91.048 166.608 88.868 162.64V162.636ZM16.704 12.7C14.456 17.028 14.016 21.188 15.78 25.216C17.56 29.276 19.904 33.088 22.172 37.324C24.496 32.82 24.84 28.528 22.92 24.32C21.16 20.464 18.932 16.82 16.704 12.7ZM17.076 52.864L16.196 53C15.732 55.044 15.08 57.064 14.848 59.132C14.432 62.8 15.848 66.036 17.68 69.132C19.208 71.712 20.628 74.356 22.228 77.208C24.132 73.664 24.892 70.132 23.648 66.836C21.836 62.036 19.304 57.508 17.076 52.868V52.864ZM75.752 121.396C71.016 121.504 67.46 123.008 65.136 126.276C62.436 130.076 60.272 134.26 57.708 138.556C61.976 138.536 65.44 137.272 67.648 134.32C70.592 130.384 72.92 125.988 75.752 121.396ZM186.788 181.388C182.252 181.48 178.7 182.904 176.404 186.08C173.632 189.908 171.444 194.156 168.788 198.576C173.348 198.484 176.884 197.048 179.18 193.856C181.944 190.02 184.148 185.78 186.792 181.388H186.788ZM2.25997 178.6C7.79197 178.348 11.632 175.976 14.228 171.604C15.992 168.628 17.608 165.564 19.276 162.528C19.44 162.228 19.488 161.86 19.64 161.368C14.704 161.624 10.976 163.712 8.46797 167.656C6.29997 171.068 4.45997 174.692 2.25997 178.6ZM22.32 82.78C20.436 86.084 19.516 89.772 20.744 92.948C22.62 97.8 25.108 102.416 27.336 107.132C29.976 102.928 30.424 98.724 28.604 94.632C26.832 90.64 24.524 86.888 22.32 82.78ZM168.76 38.628C173.388 38.464 176.968 37.02 179.292 33.748C181.996 29.948 184.16 25.764 186.644 21.604C182.776 21.336 178.66 22.88 176.388 26.092C173.66 29.956 171.432 34.176 168.76 38.628ZM127.724 47.32C129.632 43.724 130.46 40.264 129.24 37.024C127.408 32.168 124.888 27.576 122.66 22.872C120 27.02 119.588 31.184 121.336 35.204C123.1 39.268 125.452 43.072 127.724 47.32ZM194.424 167.296C196.052 164.056 196.696 161.144 196.204 158.032C195.3 152.324 191.38 148.072 188.952 142.572C186.612 147.22 186.296 151.552 188.248 155.808C189.988 159.596 192.184 163.172 194.424 167.292V167.296ZM122.324 62.8C120.204 66.468 119.528 70.768 121.116 74.488C122.956 78.8 125.352 82.88 127.704 87.436C130.012 82.876 130.42 78.628 128.544 74.476C126.772 70.552 124.512 66.852 122.328 62.804L122.324 62.8ZM122.324 102.796C120.204 106.464 119.528 110.772 121.112 114.484C122.956 118.796 125.352 122.872 127.688 127.396C130.044 122.868 130.408 118.62 128.54 114.468C126.772 110.544 124.508 106.848 122.324 102.796ZM186.816 61.424C182.304 61.476 178.784 62.868 176.516 65.972C173.692 69.836 171.464 74.136 168.776 78.58C173.192 78.516 176.68 77.192 178.916 74.16C181.792 70.252 184.076 65.908 186.816 61.424ZM22.748 43L21.752 42.988C21.292 45.032 20.58 47.052 20.42 49.116C19.856 56.264 24.992 61.096 27.7 67.348C29.62 63.752 30.456 60.296 29.244 57.052C27.444 52.232 24.948 47.672 22.748 43ZM55.492 57.22C57.136 54.352 57.64 51.656 57.38 48.832C56.82 42.728 52.604 38.34 50.06 32.688C47.632 37.38 47.408 41.724 49.404 45.98C51.152 49.704 53.312 53.236 55.492 57.224V57.22ZM155.464 117.312C157.116 114.312 157.644 111.628 157.38 108.804C156.812 102.72 152.6 98.34 150.084 92.704C148.416 95.748 147.828 98.528 148.188 101.48C148.908 107.384 152.964 111.728 155.464 117.312ZM120.012 181.372C115.076 181.54 111.424 183.352 108.988 186.948C106.544 190.56 104.572 194.488 102.208 198.592C107.08 198.416 110.788 196.648 113.256 192.964C115.648 189.392 117.612 185.532 120.008 181.372H120.012ZM116.72 32.668C114.904 36.132 113.972 39.46 115.12 42.572C116.96 47.56 119.488 52.296 121.724 57.136L122.42 56.888C124.4 52.98 124.86 48.828 123.104 44.804C121.336 40.744 118.992 36.936 116.716 32.668H116.72ZM35.552 158.108L36.148 158.584C41.2 158.328 44.996 155.912 47.588 151.56C49.256 148.76 50.78 145.876 52.36 143.024C52.624 142.548 52.824 142.044 53.132 141.38C49.364 141.492 46.024 142.496 43.952 145.2C40.844 149.268 38.32 153.784 35.552 158.108ZM188.832 57.356C190.58 54.008 191.596 50.768 190.492 47.724C188.648 42.648 186.132 37.816 183.896 32.88L182.948 32.996C182.484 34.812 181.82 36.608 181.592 38.452C180.664 45.916 186.02 50.928 188.832 57.352V57.356ZM88.864 117.308C90.576 113.98 91.604 110.74 90.484 107.68C88.632 102.612 86.116 97.788 83.88 92.86L83.172 93.096C81.056 97.188 80.74 101.488 82.644 105.696C84.392 109.552 86.628 113.188 88.864 117.312V117.308ZM102.252 118.628C107.788 118.344 111.628 115.984 114.228 111.632C115.824 108.956 117.276 106.192 118.784 103.464C119.116 102.864 119.42 102.252 119.876 101.384C114.76 101.604 111.036 103.684 108.524 107.588C106.312 111.028 104.46 114.704 102.252 118.628ZM175.656 141.36C170.612 141.584 166.96 143.38 164.536 146.98C162.108 150.584 160.136 154.496 157.916 158.356C161.62 158.74 165.98 157 168.296 153.648C170.912 149.86 173.06 145.748 175.656 141.36ZM157.736 198.568C162.12 198.52 165.64 197.136 167.912 194.044C170.744 190.184 172.972 185.88 175.56 181.612C171.552 181.26 167.32 183.024 164.892 186.548C162.316 190.284 160.22 194.352 157.74 198.572L157.736 198.568ZM160.86 146.968L161.44 146.996C161.904 145.384 162.536 143.8 162.8 142.156C164.044 134.444 158.584 129.268 155.6 122.644C153.956 125.924 153.312 128.832 153.804 131.94C154.704 137.648 158.628 141.904 160.86 146.972V146.968ZM88.88 122.656C86.504 127.664 86.36 132.248 88.68 136.804C90.216 139.82 91.936 142.744 93.592 145.704C93.832 146.132 94.156 146.512 94.568 147.088C96.82 142.452 97.048 138.004 94.868 133.616C93.096 130.052 91.064 126.624 88.884 122.656H88.88ZM186.828 141.404C182.396 141.472 178.896 142.784 176.66 145.816C173.78 149.72 171.504 154.068 168.756 158.572C173.208 158.516 176.692 157.18 178.928 154.14C181.804 150.232 184.088 145.888 186.828 141.4V141.404ZM153.404 121.336C147.84 121.652 143.984 123.968 141.368 128.308C139.86 130.816 138.508 133.416 137.088 135.976C136.656 136.752 136.232 137.532 135.652 138.588C140.364 138.448 143.96 136.744 146.34 133.308C148.892 129.624 150.928 125.58 153.4 121.336H153.404ZM142.308 121.416C138.048 121.456 134.576 122.704 132.372 125.66C129.432 129.6 127.1 133.992 124.256 138.592C129.004 138.48 132.56 136.968 134.884 133.696C137.584 129.896 139.744 125.712 142.308 121.412V121.416ZM75.532 161.38C70.6 161.556 66.912 163.412 64.448 167.092C62.06 170.664 60.116 174.532 57.788 178.6C62.9 178.412 66.656 176.408 69.184 172.504C71.416 169.056 73.276 165.368 75.532 161.38ZM86.556 161.516C82.74 161.42 78.98 162.672 76.776 165.676C73.872 169.64 71.528 174.008 68.688 178.616C74.148 178.38 77.908 176.276 80.444 172.276C82.6 168.872 84.44 165.268 86.552 161.516H86.556ZM83.884 12.876L82.964 13.012C82.5 14.772 81.84 16.508 81.604 18.3C80.608 25.844 85.988 30.908 88.844 37.36C90.576 34 91.6 30.76 90.484 27.704C88.632 22.636 86.116 17.808 83.88 12.88L83.884 12.876ZM88.708 77.232C90.484 74.4 91.184 70.896 90.644 67.912C89.628 62.28 85.86 58.016 83.384 52.7C81.244 56.732 80.7 60.632 82.172 64.312C83.936 68.708 86.432 72.812 88.708 77.232ZM20.212 81.388C15.288 81.536 11.688 83.164 9.31197 86.584C6.72397 90.308 4.64797 94.384 2.27197 98.436C6.03997 98.616 9.80797 97.4 12.076 94.344C15.004 90.396 17.352 86.016 20.216 81.388H20.212ZM188.86 137.3C190.58 133.98 191.6 130.736 190.484 127.684C188.632 122.612 186.116 117.784 183.88 112.852L183.16 113.08C181.068 117.172 180.732 121.472 182.636 125.68C184.384 129.536 186.624 133.172 188.86 137.3ZM183.876 72.864L182.956 73.004C182.492 74.768 181.836 76.504 181.6 78.296C180.608 85.836 185.992 90.892 188.8 97.244C190.604 93.976 191.584 90.576 190.488 87.664C188.592 82.612 186.112 77.784 183.876 72.86V72.864ZM155.628 42.568C153.92 46.064 153.276 49.056 153.864 52.26C154.884 57.828 158.648 62.024 160.964 67.148C163.06 63.888 163.824 59.248 162.264 55.572C160.436 51.272 158.032 47.216 155.632 42.572L155.628 42.568ZM60.932 47.124C63.52 43.364 63.66 37.66 61.344 33.212C59.84 30.324 58.212 27.504 56.628 24.664C56.324 24.12 55.972 23.604 55.492 22.836C53.968 25.972 53.296 28.892 53.812 32.016C54.752 37.696 58.62 41.944 60.932 47.124ZM189.148 23.04L188.456 23.104C188.024 24.744 187.436 26.364 187.184 28.032C186.028 35.664 191.46 40.776 194.404 47.388C196.028 44.084 196.692 41.18 196.204 38.072C195.308 32.36 191.376 28.108 189.148 23.036V23.04ZM94.38 107.424C96.08 103.932 96.724 100.94 96.136 97.736C95.112 92.168 91.352 87.976 88.972 82.716C87.332 85.544 86.88 88.18 87.064 90.94C87.476 97.164 91.852 101.564 94.38 107.424ZM68.84 138.6C73.696 138.456 77.348 136.712 79.784 133.156C82.272 129.516 84.276 125.548 86.704 121.36C81.976 121.56 78.316 123.16 75.908 126.656C73.372 130.34 71.32 134.36 68.844 138.6H68.84ZM135.528 18.624C140.416 18.436 144.048 16.7 146.456 13.176C148.948 9.528 150.956 5.548 153.356 1.396C148.536 1.552 144.856 3.284 142.412 6.868C139.956 10.468 137.976 14.396 135.528 18.624ZM55.576 102.68C53.952 105.92 53.308 108.832 53.8 111.944C54.708 117.648 58.616 121.904 61.052 127.416C63.38 122.748 63.708 118.416 61.752 114.164C60.008 110.38 57.816 106.804 55.576 102.684V102.68ZM189.144 103.02L188.564 102.992C188.1 104.604 187.468 106.192 187.204 107.836C185.96 115.548 191.424 120.72 194.416 127.372C196.028 124.064 196.7 121.16 196.204 118.048C195.3 112.34 191.38 108.084 189.144 103.016V103.02ZM94.372 27.436C96.052 24.048 96.708 21.12 96.184 17.996C95.236 12.324 91.384 8.068 88.956 2.652C87.4 5.528 86.88 8.14 87.052 10.9C87.444 17.14 91.84 21.54 94.368 27.436H94.372ZM94.368 67.3C96.016 64.296 96.624 61.548 96.284 58.664C95.576 52.656 91.5 48.248 88.776 43.068C88.024 44.74 87.436 46.36 87.184 48.032C86.036 55.664 91.456 60.776 94.368 67.296V67.3ZM161.124 27.356C163.504 22.324 163.64 17.736 161.316 13.18C159.776 10.164 158.06 7.236 156.404 4.28C156.168 3.856 155.836 3.48 155.448 2.94C153.196 7.492 152.956 11.896 155.072 16.228C156.844 19.86 158.924 23.344 161.124 27.356ZM186.62 101.416C182.788 101.448 179.792 102.636 177.4 104.984C173.56 108.756 171.896 113.884 168.904 118.604C174.024 118.412 177.74 116.412 180.236 112.584C182.508 109.104 184.384 105.364 186.616 101.416H186.62ZM194.388 87.356C196.064 84.1 196.7 81.192 196.208 78.096C195.292 72.364 191.428 68.076 188.96 62.728C187.336 65.576 186.876 68.216 187.072 70.976C187.512 77.188 191.844 81.592 194.388 87.352V87.356ZM35.552 78.124L36.152 78.608C41.18 78.324 44.996 75.936 47.588 71.584C49.188 68.896 50.64 66.124 52.156 63.392C52.484 62.804 52.812 62.216 53.26 61.408C49.36 61.488 46.024 62.512 43.956 65.216C40.844 69.28 38.324 73.8 35.556 78.124H35.552ZM53.3 21.376C47.764 21.64 43.924 24.024 41.328 28.384C39.556 31.356 37.948 34.424 36.288 37.456C36.124 37.756 36.084 38.124 35.94 38.616C40.956 38.352 44.696 36.192 47.212 32.152C49.316 28.776 51.14 25.228 53.304 21.376H53.3ZM153.288 81.396C148.872 81.508 145.316 82.952 143.008 86.16C140.28 89.956 138.112 94.156 135.432 98.64C140.832 98.372 144.584 96.284 147.112 92.288C149.272 88.876 151.116 85.256 153.288 81.396ZM155.588 82.668C153.944 85.936 153.304 88.856 153.804 91.972C154.72 97.668 158.62 101.916 161.044 107.38C163.36 102.88 163.72 98.644 161.892 94.516C160.152 90.592 157.872 86.908 155.588 82.668ZM35.54 118.484C39.908 118.444 43.42 117.18 45.716 114C48.524 110.116 50.78 105.828 53.468 101.392C48.8 101.492 45.22 103.012 42.884 106.284C40.204 110.036 38.084 114.192 35.54 118.48V118.484ZM102.12 78.64C107.74 78.356 111.608 76.024 114.208 71.648C115.976 68.672 117.592 65.608 119.26 62.572C119.428 62.268 119.488 61.9 119.612 61.516C115.544 61.516 111.832 63.012 109.46 66.404C106.816 70.184 104.676 74.324 102.124 78.64H102.12ZM61.012 87.324C62.668 84.404 63.132 81.764 62.932 79.004C62.484 72.796 58.156 68.392 55.608 62.636C53.952 65.908 53.312 68.812 53.796 71.912C54.684 77.624 58.612 81.88 61.016 87.324H61.012ZM68.972 98.476C72.704 98.492 75.7 97.436 78.176 94.98C81.996 91.192 83.668 86.08 86.648 81.372C81.636 81.588 77.92 83.476 75.444 87.24C73.124 90.764 71.208 94.556 68.972 98.476ZM175.64 61.376C170.648 61.56 166.968 63.364 164.516 67C162.088 70.6 160.12 74.516 157.784 78.584C162.324 78.5 165.92 76.956 168.28 73.64C170.948 69.892 173.052 65.748 175.64 61.372V61.376ZM2.17997 58.648C7.62797 58.36 11.46 56.128 14.072 51.856C15.392 49.7 16.564 47.452 17.792 45.24C18.448 44.056 19.08 42.852 19.78 41.552C15.536 41.436 11.512 43.228 9.09197 46.832C6.62397 50.504 4.59597 54.476 2.17997 58.648ZM24.384 118.624C30.036 118.328 33.808 115.96 36.392 111.708C38.008 109.044 39.44 106.268 40.956 103.544C41.312 102.9 41.672 102.256 42.16 101.372C37.5 101.556 33.872 103.18 31.488 106.624C28.944 110.304 26.896 114.328 24.384 118.628V118.624ZM42.112 21.524C38.44 21.48 35.284 22.604 32.824 25.112C29.108 28.9 27.42 33.94 24.448 38.624C29.66 38.412 33.396 36.344 35.912 32.44C38.128 29 39.976 25.32 42.116 21.524H42.112ZM124.48 58.588C128.852 58.496 132.364 57.112 134.628 53.988C137.436 50.116 139.676 45.836 142.368 41.384C137.164 41.576 133.42 43.516 130.916 47.356C128.644 50.84 126.756 54.572 124.476 58.588H124.48ZM135.528 58.6C140.292 58.452 143.864 56.824 146.216 53.456C148.816 49.728 150.9 45.636 153.38 41.408C148.596 41.512 144.948 43.224 142.524 46.716C140.004 50.348 138.004 54.34 135.528 58.6ZM157.768 118.652C163.36 118.3 167.216 115.972 169.796 111.596C171.512 108.684 173.104 105.696 174.74 102.732C174.94 102.368 175.044 101.952 175.256 101.392C170.468 101.58 166.78 103.524 164.308 107.276C161.988 110.796 160.08 114.592 157.768 118.656V118.652ZM102.252 38.556C105.94 38.608 108.856 37.448 111.26 35.224C115.304 31.484 116.872 26.192 120.02 21.4C115.056 21.572 111.408 23.396 108.976 26.992C106.532 30.6 104.564 34.532 102.252 38.556ZM24.364 78.616C29.36 78.444 33.032 76.628 35.484 72.992C37.912 69.392 39.88 65.476 42.216 61.412C37.68 61.492 34.08 63.036 31.72 66.352C29.052 70.096 26.948 74.244 24.364 78.616ZM142.108 1.536C138.42 1.464 134.9 2.464 132.752 5.292C129.668 9.352 127.18 13.868 124.436 18.188C129.72 18.4 133.472 16.284 136.004 12.288C138.16 8.884 140 5.28 142.104 1.536H142.108ZM75.66 81.344C70.532 81.62 66.848 83.46 64.4 87.144C62.032 90.712 60.092 94.56 57.792 98.592C62.316 98.496 65.912 96.964 68.272 93.648C70.94 89.9 73.048 85.756 75.66 81.344ZM75.44 1.568C71.584 1.436 67.896 2.672 65.636 5.748C62.732 9.704 60.392 14.072 57.572 18.64C62.832 18.42 66.584 16.496 69.084 12.652C71.352 9.168 73.244 5.436 75.44 1.568ZM20.02 1.404C15.124 1.568 11.5 3.328 9.09597 6.852C6.59997 10.504 4.59597 14.488 2.20797 18.616C7.00797 18.472 10.696 16.74 13.144 13.156C15.604 9.552 17.584 5.62 20.02 1.404ZM175.476 21.552C171.644 21.464 168.1 22.548 165.908 25.472C162.892 29.496 160.456 33.956 157.496 38.672C162.668 38.388 166.396 36.652 168.852 32.948C171.22 29.376 173.184 25.532 175.476 21.552ZM142.248 81.376C137.772 81.524 134.18 82.948 131.848 86.2C129.132 89.992 126.98 94.184 124.348 98.596C129.284 98.456 132.932 96.7 135.36 93.14C137.844 89.5 139.844 85.528 142.248 81.376ZM57.784 58.592C62.244 58.512 65.816 57.04 68.148 53.8C70.872 50.016 73.02 45.816 75.664 41.38C70.644 41.568 66.968 43.376 64.516 47.012C62.088 50.612 60.12 54.524 57.784 58.592Z" fill="#EFE26E"/>
<path d="M0 191.2C3.38 191.32 6.78 191.248 10.132 191.608C14.248 192.048 18.116 195.008 19.68 198.676C12.916 198.244 6.012 200.092 0 195.6V191.2Z" fill="#FEFFD5"/>
<path d="M0 31.2002C2.588 31.2482 5.176 31.2642 7.764 31.3482C12.98 31.5202 16.96 33.7922 20.016 38.7322C12.908 38.2922 5.996 40.1442 0 35.6002V31.2002Z" fill="#FEFFD5"/>
<path d="M0 151.2C3.38 151.32 6.788 151.208 10.132 151.624C14.38 152.148 17.484 154.612 20.028 158.704C12.912 158.268 6.008 160.104 0 155.6V151.2Z" fill="#FEFFD5"/>
<path d="M0 71.2002C2.52 71.2442 5.044 71.2722 7.564 71.3322C12.856 71.4602 16.916 73.7042 20 78.7202C12.908 78.2842 6 80.1322 0 75.6002V71.2002Z" fill="#FEFFD5"/>
<path d="M0 111.2C3.38 111.324 6.788 111.212 10.132 111.628C14.38 112.156 17.484 114.612 20.024 118.712C12.908 118.28 6.004 120.116 0 115.6V111.2Z" fill="#FEFFD5"/>
<path d="M56.7999 200C55.7959 197.296 54.5359 194.66 53.8559 191.876C53.1119 188.836 53.9559 185.872 55.5839 182.656C58.4319 188.576 62.6959 193.424 63.1999 200H56.7999Z" fill="#FEFFD5"/>
<path d="M123.6 200C123.008 198.824 122.38 197.66 121.824 196.464C119.744 191.972 119.836 187.516 122.268 182.576C124.844 188.644 129.708 193.22 129.596 199.996H123.596L123.6 200Z" fill="#FEFFD5"/>
<path d="M54 0C56.892 4.408 58.424 9.084 56.792 14.368C56.596 15 56.324 15.612 56.068 16.224C55.972 16.448 55.812 16.648 55.452 17.22C52.728 11.348 48.304 6.604 48 0H54Z" fill="#FEFFD5"/>
<path d="M190.4 200C188.076 196.26 186.388 192.328 187.204 187.792C187.492 186.196 188.052 184.648 188.8 183.052C191.672 188.624 196.2 193.336 196.404 200.004H190.404L190.4 200Z" fill="#FEFFD5"/>
<path d="M187.6 0C188.604 2.584 189.864 5.1 190.54 7.764C191.344 10.936 190.548 14.032 188.752 17.552C186.324 12.632 184.052 8.224 181.996 3.72C181.504 2.644 181.716 1.248 181.6 0C183.6 0 185.6 0 187.6 0V0Z" fill="#FEFFD5"/>
<path d="M120.8 9.37502e-05C122.736 3.52409 124.632 7.08409 124.004 11.3001C123.716 13.2321 123.108 15.1121 122.648 17.0161L121.924 17.0721C119.732 12.7601 117.452 8.49209 115.408 4.11209C114.844 2.90809 114.984 1.37609 114.8 -0.00390625H120.8V9.37502e-05Z" fill="#FEFFD5"/>
<path d="M0 181.2C2.096 181.452 4.252 181.484 6.276 182.012C9.748 182.916 12.292 185.156 14.272 188.4H0V181.2Z" fill="#FEFFD5"/>
<path d="M0 141.2C2.096 141.456 4.252 141.488 6.276 142.016C9.748 142.92 12.292 145.156 14.26 148.4H0V141.2Z" fill="#FEFFD5"/>
<path d="M0 21.2002C2.096 21.4602 4.256 21.4922 6.28 22.0322C9.736 22.9562 12.32 25.1522 14.224 28.4002H0V21.2002Z" fill="#FEFFD5"/>
<path d="M0 101.2C2.096 101.456 4.256 101.488 6.28 102.02C9.744 102.932 12.308 105.152 14.26 108.4H0V101.2Z" fill="#FEFFD5"/>
<path d="M0 61.2002C2.096 61.4602 4.252 61.4922 6.276 62.0282C9.74 62.9442 12.304 65.1602 14.256 68.4002H0V61.2002Z" fill="#FEFFD5"/>
<path d="M0 164.4C2.592 162.788 5.224 161.276 8.876 161.46C5.684 166.108 4.268 171.532 0 175.2V164.4Z" fill="#FEFFD5"/>
<path d="M200 15.6C197.408 17.22 194.764 18.688 191.104 18.556C194.316 13.888 195.724 8.46005 200 4.80005V15.6Z" fill="#FEFFD5"/>
<path d="M0 124.4C2.588 122.764 5.236 121.32 8.896 121.44C5.684 126.108 4.272 131.536 0 135.2V124.4Z" fill="#FEFFD5"/>
<path d="M200 175.6C197.384 177.14 194.792 178.736 191.136 178.464C194.356 173.876 195.692 168.416 200 164.8V175.6Z" fill="#FEFFD5"/>
<path d="M0 84.4C2.596 82.788 5.232 81.308 8.896 81.46C5.66 86.108 4.288 91.556 0 95.2V84.4Z" fill="#FEFFD5"/>
<path d="M0 44.4002C2.608 42.8282 5.22 41.2722 8.876 41.4962C5.66 46.1122 4.292 51.5602 0 55.2002V44.4002Z" fill="#FEFFD5"/>
<path d="M200 55.6C197.408 57.216 194.764 58.6841 191.1 58.5401C194.34 53.8921 195.708 48.444 200 44.8V55.6Z" fill="#FEFFD5"/>
<path d="M200 95.6C197.392 97.172 194.78 98.724 191.12 98.5C194.344 93.888 195.7 88.436 200 84.8V95.6Z" fill="#FEFFD5"/>
<path d="M0 4.40001C2.6 2.82001 5.22 1.29601 8.884 1.49601C5.648 6.12401 4.3 11.576 0 15.2V4.40001Z" fill="#FEFFD5"/>
<path d="M200 135.6C197.388 137.148 194.792 138.736 191.132 138.476C194.36 133.88 195.7 128.424 200 124.8V135.6Z" fill="#FEFFD5"/>
<path d="M200 28.0002C196 27.4442 193.472 24.9282 191.032 21.2002H200V28.0002Z" fill="#FEFFD5"/>
<path d="M200 68.0002C196.004 67.4282 193.468 64.9242 191.036 61.2002H200V68.0002Z" fill="#FEFFD5"/>
<path d="M200 148C195.992 147.436 193.5 144.864 190.968 141.2H200V148Z" fill="#FEFFD5"/>
<path d="M200 188C196.004 187.412 193.492 184.872 190.98 181.2H200V188Z" fill="#FEFFD5"/>
<path d="M200 108C195.972 107.468 193.516 104.852 190.952 101.2H200V108Z" fill="#FEFFD5"/>
<path d="M114.8 200C115.228 197.66 115.656 195.32 116.08 192.98L116.776 193.012C118.116 195.34 119.456 197.672 120.796 200H114.796H114.8Z" fill="#FEFFD5"/>
<path d="M48 200C48.476 197.704 48.956 195.404 49.432 193.108C49.68 193.076 49.928 193.04 50.176 193.008C51.452 195.34 52.728 197.672 54 200H48Z" fill="#FEFFD5"/>
<path d="M196.4 0C195.944 2.304 195.488 4.608 195.032 6.908L194.296 6.992C192.996 4.664 191.7 2.332 190.4 0C192.4 0 194.4 0 196.4 0Z" fill="#FEFFD5"/>
<path d="M181.6 200C181.316 197.468 182.064 195.204 183.38 192.652C184.768 195.324 185.984 197.66 187.2 200H181.6Z" fill="#FEFFD5"/>
<path d="M129.6 0L128.42 6.928L127.564 7.032L124 0C125.868 0 127.732 0 129.6 0Z" fill="#FEFFD5"/>
<path d="M62.8 0C63.152 2.532 62.4 4.784 61.052 7.276C59.664 4.656 58.432 2.328 57.2 0H62.8Z" fill="#FEFFD5"/>
<path d="M200 35.2002C198.928 34.1042 197.856 33.0122 196.432 31.5602L200 31.2002V35.2002Z" fill="#FEFFD5"/>
<path d="M200 155.2C198.928 154.096 197.86 152.992 196.408 151.5C197.996 151.368 198.996 151.284 200 151.2V155.2Z" fill="#FEFFD5"/>
<path d="M200 115.2C198.928 114.1 197.856 113 196.412 111.512C197.996 111.372 199 111.284 200 111.2V115.2Z" fill="#FEFFD5"/>
<path d="M200 75.2002C198.928 74.1002 197.856 73.0042 196.42 71.5362C197.992 71.3882 198.996 71.2962 200 71.2002V75.2002Z" fill="#FEFFD5"/>
<path d="M200 195.2C198.928 194.092 197.856 192.984 196.404 191.484C197.996 191.36 198.996 191.28 200 191.2V195.2Z" fill="#FEFFD5"/>
<path d="M113.936 168.892C109.14 168.624 104.3 168.672 99.568 167.984C95.908 167.452 93.296 164.876 90.996 161.104C96.244 161.332 100.96 161.2 105.568 161.844C109.356 162.376 112.176 164.884 114.104 168.184C114.048 168.42 113.992 168.656 113.936 168.892Z" fill="#FEFFD5"/>
<path d="M119.768 178.304C114.932 178.304 110.348 178.624 105.828 178.204C102.072 177.856 98.876 175.036 96.936 171.528C97.408 171.448 97.828 171.312 98.244 171.316C102.232 171.388 106.244 171.216 110.196 171.64C114.388 172.092 117.476 174.588 119.772 178.3L119.768 178.304Z" fill="#FEFFD5"/>
<path d="M53.152 98.4281C48.532 98.4281 44.2 98.7201 39.924 98.3441C35.656 97.9681 32.532 95.4001 29.976 91.2561C35.676 91.6681 40.984 90.4561 46.128 92.3281C49.164 93.4321 51.428 95.5001 53.152 98.4281Z" fill="#FEFFD5"/>
<path d="M153.128 118.404C148.468 118.404 144.064 118.728 139.732 118.312C135.56 117.912 132.476 115.352 129.984 111.248C135.74 111.688 141.12 110.392 146.316 112.388C149.256 113.52 151.476 115.548 153.132 118.404H153.128Z" fill="#FEFFD5"/>
<path d="M53.152 138.424C48.524 138.424 44.188 138.724 39.916 138.34C35.656 137.956 32.52 135.4 29.972 131.256C35.672 131.66 40.976 130.452 46.12 132.324C49.156 133.428 51.416 135.5 53.148 138.428L53.152 138.424Z" fill="#FEFFD5"/>
<path d="M97.02 11.556C101.428 11.556 105.696 11.28 109.908 11.632C114.256 11.996 117.44 14.544 120.024 18.732C114.5 18.424 109.396 19.4 104.412 17.896C101.152 16.912 98.404 14.432 97.024 11.556H97.02Z" fill="#FEFFD5"/>
<path d="M153.048 198.272C148.296 198.272 143.628 198.668 139.068 198.152C135.204 197.712 132.268 195.172 129.976 191.1C135.152 191.332 139.872 191.204 144.48 191.848C148.284 192.38 151.096 194.92 153.048 198.272Z" fill="#FEFFD5"/>
<path d="M114.168 88.948C109.08 88.64 104.176 88.668 99.3839 87.94C95.7079 87.384 92.7119 84.424 91.3799 81.136C96.2439 81.348 100.956 81.244 105.572 81.848C109.436 82.356 112.844 85.464 114.168 88.948Z" fill="#FEFFD5"/>
<path d="M57.96 61.5881C62.624 61.5881 67.028 61.2721 71.364 61.6801C75.556 62.0761 78.632 64.6641 81.1 68.6761C79.788 68.6761 78.832 68.6921 77.876 68.6761C74.484 68.6041 71.064 68.7641 67.708 68.3761C63.42 67.8801 60.292 65.3761 57.96 61.5921V61.5881Z" fill="#FEFFD5"/>
<path d="M97.008 51.5681C101.472 51.5681 105.808 51.2681 110.08 51.6521C114.344 52.0321 117.476 54.5921 120.028 58.7361C114.324 58.3321 109.02 59.5361 103.872 57.6681C100.776 56.5441 98.388 54.3361 97.008 51.5681Z" fill="#FEFFD5"/>
<path d="M96.856 131.628C101.62 131.628 106.156 131.268 110.6 131.736C114.592 132.156 117.588 134.704 119.656 138.16C119.5 138.376 119.424 138.568 119.352 138.568C115.1 138.532 110.824 138.748 106.604 138.356C102.312 137.956 99.204 135.364 96.852 131.628H96.856Z" fill="#FEFFD5"/>
<path d="M114.22 48.384C109.456 48.384 105.008 48.652 100.608 48.304C96.76 47.996 93.136 44.988 91.328 41.292C96.688 41.652 101.924 40.516 107.012 42.256C110.124 43.32 112.476 45.388 114.216 48.388L114.22 48.384Z" fill="#FEFFD5"/>
<path d="M130.496 151.124C135.168 151.336 139.884 151.224 144.5 151.856C148.268 152.372 151.028 154.928 153.064 158.24C152.856 158.396 152.712 158.592 152.572 158.592C148.388 158.552 144.176 158.76 140.024 158.36C135.704 157.944 132.524 155.432 130.32 151.796L130.496 151.124Z" fill="#FEFFD5"/>
<path d="M91.336 1.68015C96.14 1.68015 100.736 1.30015 105.232 1.79615C109.128 2.22415 112.068 4.77215 114.084 8.15615C113.94 8.38415 113.872 8.58815 113.804 8.58815C109.496 8.54415 105.156 8.77215 100.884 8.34415C96.696 7.92815 93.62 5.37615 91.332 1.68015H91.336Z" fill="#FEFFD5"/>
<path d="M124.908 21.104C129.708 21.372 134.556 21.324 139.3 22.004C142.984 22.532 145.596 25.132 147.868 28.884C142.684 28.66 137.956 28.8 133.336 28.156C129.536 27.624 126.692 25.112 124.908 21.104Z" fill="#FEFFD5"/>
<path d="M53.156 178.4C48.48 178.4 44.076 178.724 39.748 178.308C35.576 177.908 32.48 175.352 30.016 171.308C31.16 171.308 31.912 171.296 32.664 171.308C36.252 171.388 39.864 171.224 43.416 171.62C47.7 172.096 50.82 174.612 53.156 178.4Z" fill="#FEFFD5"/>
<path d="M53.144 18.3962C48.436 18.3962 43.988 18.6522 39.58 18.3202C35.732 18.0282 32.136 15.0962 30.396 11.6722C30.544 11.5762 30.7 11.3922 30.852 11.3962C34.972 11.4362 39.112 11.2522 43.204 11.6162C47.58 12.0082 50.764 14.5682 53.144 18.3962Z" fill="#FEFFD5"/>
<path d="M153.416 78.936C148.112 78.644 143.264 78.7 138.528 78.02C134.864 77.492 132.2 74.964 130.32 71.804C130.376 71.548 130.436 71.288 130.492 71.032C135.476 71.372 140.516 71.364 145.424 72.168C148.824 72.724 151.308 75.256 153.42 78.944L153.416 78.936Z" fill="#FEFFD5"/>
<path d="M113.932 128.924C109.076 128.628 104.168 128.66 99.376 127.932C95.704 127.376 92.688 124.396 91.384 121.128C96.24 121.34 100.96 121.208 105.572 121.856C109.36 122.388 112.184 124.892 114.108 128.192C114.048 128.436 113.992 128.68 113.932 128.924Z" fill="#FEFFD5"/>
<path d="M158.068 41.7121C162.824 41.7121 167.492 41.3201 172.06 41.8321C175.944 42.2681 178.824 44.8841 180.84 48.2961C176.048 48.2961 171.38 48.6921 166.82 48.1761C162.94 47.7361 160.048 45.1241 158.072 41.7121H158.068Z" fill="#FEFFD5"/>
<path d="M24.832 81.5681C29.292 81.5681 33.624 81.2681 37.896 81.6521C42.172 82.0361 45.28 84.6441 47.38 88.9601C42.388 88.6321 37.352 88.6201 32.424 87.8681C28.996 87.3441 26.18 84.4681 24.832 81.5681Z" fill="#FEFFD5"/>
<path d="M47.572 8.37203C42.84 8.37203 38.304 8.72803 33.852 8.26403C29.848 7.84803 26.852 5.28803 24.66 1.62403C25.168 1.50803 25.516 1.35203 25.864 1.35603C29.788 1.40403 33.736 1.24403 37.632 1.60403C42.012 2.01203 45.204 4.56003 47.576 8.36803L47.572 8.37203Z" fill="#FEFFD5"/>
<path d="M80.9 28.428C76.252 28.428 71.912 28.724 67.632 28.344C63.356 27.964 60.28 25.328 57.64 21.104C62.936 21.36 67.728 21.264 72.412 21.924C76.156 22.452 78.9 24.996 80.9039 28.424L80.9 28.428Z" fill="#FEFFD5"/>
<path d="M157.94 81.6362C162.732 81.6362 167.272 81.2722 171.72 81.7442C175.724 82.1682 178.72 84.7362 180.904 88.4082C180.408 88.5162 180.056 88.6642 179.708 88.6602C175.78 88.6082 171.836 88.7562 167.936 88.4042C163.54 88.0082 160.388 85.4122 157.94 81.6402V81.6362Z" fill="#FEFFD5"/>
<path d="M30.24 51.596C34.92 51.596 39.316 51.272 43.644 51.688C47.824 52.092 50.88 54.704 53.36 58.728C47.84 58.388 42.656 59.464 37.62 57.832C34.432 56.8 31.976 54.712 30.24 51.596Z" fill="#FEFFD5"/>
<path d="M119.512 98.9682C114.528 98.6322 109.484 98.6442 104.58 97.8362C101.184 97.2762 98.6839 94.7562 96.9839 91.7442C101.752 91.7442 106.476 91.3442 111.096 91.8682C114.896 92.3002 117.74 94.8802 119.672 98.2082C119.62 98.4602 119.568 98.7162 119.516 98.9682H119.512Z" fill="#FEFFD5"/>
<path d="M24.9119 41.0481C29.8399 41.3641 34.8199 41.3481 39.6759 42.1081C43.1799 42.6561 45.6839 45.2361 47.8879 48.9161C42.6239 48.6561 37.8359 48.7481 33.1559 48.0841C29.4159 47.5561 26.6679 45.0281 24.7599 41.7801L24.9159 41.0481H24.9119Z" fill="#FEFFD5"/>
<path d="M47.652 128.932C42.504 128.628 37.588 128.668 32.784 127.952C29.092 127.4 26.164 124.536 24.616 121.012C29.824 121.348 34.792 121.348 39.652 122.084C43.164 122.616 46.008 125.46 47.648 128.928L47.652 128.932Z" fill="#FEFFD5"/>
<path d="M147.584 68.388C142.872 68.388 138.4 68.732 134.008 68.288C129.92 67.872 126.876 65.316 124.48 61.328C125.46 61.328 126.076 61.32 126.692 61.328C130.348 61.396 134.028 61.236 137.656 61.6C142.036 62.036 145.22 64.568 147.584 68.384V68.388Z" fill="#FEFFD5"/>
<path d="M147.58 148.38C142.868 148.38 138.392 148.728 134 148.276C129.92 147.856 126.864 145.3 124.484 141.308C125.456 141.308 126.072 141.296 126.688 141.308C130.412 141.388 134.16 141.22 137.848 141.616C142.14 142.076 145.264 144.608 147.58 148.372V148.38Z" fill="#FEFFD5"/>
<path d="M147.496 108.288C142.732 108.288 138.064 108.684 133.5 108.168C129.624 107.728 126.724 105.144 124.384 101.112C129.6 101.348 134.324 101.228 138.944 101.872C142.756 102.404 145.548 104.964 147.5 108.292L147.496 108.288Z" fill="#FEFFD5"/>
<path d="M153.128 38.4322C148.512 38.4322 144.176 38.7282 139.896 38.3482C135.636 37.9682 132.52 35.4002 129.976 31.2922C135.444 31.5922 140.492 30.6202 145.412 32.0762C148.768 33.0682 151.3 35.2482 153.124 38.4322H153.128Z" fill="#FEFFD5"/>
<path d="M157.96 121.568C162.612 121.568 166.956 121.264 171.24 121.652C175.5 122.04 178.62 124.62 180.68 128.868C175.94 128.632 171.152 128.716 166.468 128.064C162.704 127.54 160.004 124.948 157.96 121.568Z" fill="#FEFFD5"/>
<path d="M124.652 181.624C129.428 181.624 133.96 181.264 138.404 181.732C142.416 182.152 145.388 184.752 147.616 188.448C146.96 188.528 146.472 188.644 145.988 188.636C142.196 188.588 138.384 188.748 134.62 188.388C130.248 187.972 127.044 185.472 124.652 181.624Z" fill="#FEFFD5"/>
<path d="M57.96 101.572C62.612 101.572 66.96 101.268 71.24 101.656C75.5 102.044 78.616 104.628 80.668 108.876C75.928 108.64 71.14 108.72 66.46 108.064C62.7 107.54 59.996 104.952 57.96 101.568V101.572Z" fill="#FEFFD5"/>
<path d="M57.948 141.564C62.6 141.564 66.944 141.264 71.228 141.648C75.496 142.028 78.608 144.62 80.82 148.196L80.676 148.888C75.872 148.624 71.024 148.672 66.28 148C62.588 147.476 59.972 144.872 57.948 141.564Z" fill="#FEFFD5"/>
<path d="M158.068 161.688C162.828 161.688 167.496 161.288 172.06 161.812C175.932 162.256 178.848 164.828 180.808 168.268C176.04 168.268 171.372 168.664 166.804 168.148C162.92 167.708 160.04 165.088 158.068 161.688Z" fill="#FEFFD5"/>
<path d="M47.58 168.38C42.876 168.38 38.408 168.728 34.016 168.28C29.932 167.864 26.88 165.304 24.632 161.576C25.164 161.46 25.516 161.316 25.868 161.324C29.856 161.388 33.872 161.224 37.828 161.62C42.12 162.052 45.248 164.6 47.58 168.38Z" fill="#FEFFD5"/>
<path d="M80.884 188.416C76.276 188.416 71.94 188.712 67.664 188.332C63.38 187.952 60.288 185.316 57.744 181.256C63.216 181.584 68.34 180.556 73.324 182.096C76.604 183.108 79.112 185.24 80.884 188.416Z" fill="#FEFFD5"/>
<path d="M180.904 8.42811C176.236 8.42811 171.892 8.72811 167.612 8.34411C163.344 7.96011 160.28 5.32411 158.028 1.72011C162.828 1.72011 167.496 1.32811 172.064 1.84011C175.948 2.27611 178.836 4.88011 180.908 8.42811H180.904Z" fill="#FEFFD5"/>
<path d="M63.52 191.56C68.168 191.56 72.512 191.264 76.796 191.644C81.072 192.02 84.16 194.64 86.248 198.848C81.504 198.616 76.712 198.704 72.024 198.052C68.264 197.532 65.56 194.948 63.52 191.56Z" fill="#FEFFD5"/>
<path d="M63.52 31.5521C68.096 31.5521 72.364 31.2801 76.584 31.6281C80.956 31.9881 84.108 34.6041 86.388 38.2241L86.248 38.9801C81.26 38.6481 76.216 38.6521 71.304 37.8641C67.88 37.3161 65.4 34.7641 63.52 31.5561V31.5521Z" fill="#FEFFD5"/>
<path d="M186.408 98.3282C181.668 98.3282 177.064 98.7162 172.56 98.2122C168.604 97.7682 165.632 95.1922 163.62 91.6602C168.332 91.6602 172.932 91.2762 177.436 91.7762C181.4 92.2162 184.348 94.8162 186.408 98.3322V98.3282Z" fill="#FEFFD5"/>
<path d="M163.524 51.556C168.12 51.556 172.396 51.28 176.616 51.632C180.976 51.996 184.12 54.612 186.8 58.88C181.564 58.652 176.836 58.784 172.216 58.144C168.4 57.616 165.584 55.068 163.52 51.556H163.524Z" fill="#FEFFD5"/>
<path d="M186.404 178.316C181.668 178.316 177.06 178.704 172.556 178.2C168.6 177.756 165.624 175.184 163.648 171.688C168.392 171.688 173.06 171.292 177.624 171.808C181.5 172.248 184.392 174.856 186.408 178.316H186.404Z" fill="#FEFFD5"/>
<path d="M63.624 71.7041C68.384 71.7041 73.052 71.3041 77.612 71.8281C81.488 72.2721 84.404 74.8561 86.36 78.3001C81.62 78.3001 76.952 78.6961 72.388 78.1801C68.508 77.7401 65.604 75.1401 63.624 71.7081V71.7041Z" fill="#FEFFD5"/>
<path d="M63.696 111.564C68.152 111.564 72.488 111.268 76.768 111.648C81.048 112.028 84.156 114.632 86.384 118.216L86.256 118.956C81.264 118.624 76.228 118.608 71.3 117.86C67.908 117.344 65.096 114.476 63.696 111.564Z" fill="#FEFFD5"/>
<path d="M86.416 158.316C81.656 158.316 77.048 158.704 72.54 158.2C68.584 157.756 65.624 155.172 63.624 151.656C68.34 151.656 72.944 151.28 77.448 151.768C81.368 152.196 84.304 154.776 86.416 158.316Z" fill="#FEFFD5"/>
<path d="M186.468 138.38C181.748 138.38 177.276 138.724 172.88 138.28C168.78 137.864 165.756 135.264 163.364 131.316C164.636 131.316 165.592 131.3 166.544 131.316C169.936 131.388 173.356 131.236 176.716 131.616C181.008 132.1 184.136 134.6 186.468 138.38Z" fill="#FEFFD5"/>
<path d="M186.468 18.3961C181.756 18.3961 177.288 18.7361 172.896 18.2961C168.796 17.8881 165.764 15.2961 163.372 11.3401C164.448 11.3401 165.2 11.3281 165.948 11.3401C169.476 11.4041 173.024 11.248 176.52 11.6C180.9 12.04 184.088 14.5561 186.468 18.3881V18.3961Z" fill="#FEFFD5"/>
<path d="M91.132 158.628C93.36 154.668 95.204 151.044 97.376 147.632C99.888 143.68 103.636 141.62 108.6 141.364C108.388 141.916 108.28 142.324 108.084 142.684C106.448 145.66 104.868 148.668 103.136 151.588C100.544 155.952 96.704 158.328 91.136 158.632L91.132 158.628Z" fill="#FEFFD5"/>
<path d="M155.408 157.168C152.976 151.732 148.916 147.392 148.192 141.488C147.832 138.532 148.4 135.744 150.08 132.696C152.596 138.32 156.772 142.696 157.392 148.776C157.668 151.504 157.052 154.448 155.408 157.168Z" fill="#FEFFD5"/>
<path d="M50.076 152.692C52.604 158.308 56.788 162.692 57.38 168.768C57.656 171.6 57.108 174.28 55.54 177.188C54.188 174.768 52.84 172.684 51.816 170.452C50.472 167.528 49.072 164.568 48.272 161.476C47.536 158.624 48.4 155.752 50.072 152.696L50.076 152.692Z" fill="#FEFFD5"/>
<path d="M155.444 197.228C152.984 191.748 148.948 187.42 148.196 181.532C147.816 178.564 148.44 175.784 150.044 172.636C152.604 178.288 156.772 182.668 157.372 188.732C157.656 191.604 157.164 194.344 155.444 197.228Z" fill="#FEFFD5"/>
<path d="M91.136 198.616C93.368 194.652 95.212 191.028 97.384 187.612C99.896 183.664 103.652 181.612 108.608 181.348C108.392 181.904 108.28 182.316 108.084 182.676C106.448 185.652 104.868 188.66 103.136 191.58C100.54 195.94 96.708 198.32 91.14 198.616H91.136Z" fill="#FEFFD5"/>
<path d="M155.608 162.564C158.132 168.404 162.512 172.812 162.936 179.044C163.124 181.812 162.596 184.428 161.056 187.34C158.656 182.056 154.96 177.896 153.888 172.412C153.248 169.14 153.896 166.08 155.608 162.568V162.564Z" fill="#FEFFD5"/>
<path d="M24.388 198.6C26.9 194.304 28.948 190.28 31.496 186.6C33.88 183.152 37.52 181.556 42.12 181.348C41.56 182.4 41.128 183.24 40.668 184.064C39.252 186.616 37.908 189.212 36.388 191.704C33.796 195.944 30.04 198.332 24.388 198.604V198.6Z" fill="#FEFFD5"/>
<path d="M21.98 157.02C19.852 152.972 17.496 149.028 15.664 144.848C13.972 140.988 14.56 136.68 16.76 132.744C19.508 138.98 24.764 143.924 23.992 151.272C23.788 153.204 23.108 155.088 22.648 156.992L21.98 157.02Z" fill="#FEFFD5"/>
<path d="M102.264 158.612C104.396 154.804 106.192 151.312 108.248 147.98C110.788 143.868 114.548 141.636 119.648 141.372C119.488 141.876 119.432 142.24 119.264 142.548C117.596 145.584 115.984 148.652 114.216 151.624C111.616 155.996 107.756 158.348 102.264 158.612Z" fill="#FEFFD5"/>
<path d="M22.4879 162.92C24.6439 167.1 27.0679 171.164 28.8759 175.488C30.4519 179.26 29.8639 183.188 27.7079 187.348C24.9959 181.072 19.8519 176.244 20.4199 169.088C20.5839 167.028 21.2959 165.012 21.7559 162.972L22.4879 162.916V162.92Z" fill="#FEFFD5"/>
<path d="M91.08 118.576C93.544 114.356 95.588 110.312 98.152 106.624C100.54 103.188 104.164 101.532 109.156 101.384C106.188 106.08 103.736 110.556 100.692 114.584C98.556 117.412 95.164 118.52 91.084 118.576H91.08Z" fill="#FEFFD5"/>
<path d="M122.272 142.716C124.464 146.76 126.636 150.356 128.408 154.136C130.384 158.356 130.048 162.66 127.82 167.204C126.912 165.624 126.076 164.332 125.4 162.956C123.768 159.624 121.88 156.368 120.728 152.872C119.64 149.572 120.376 146.164 122.268 142.712L122.272 142.716Z" fill="#FEFFD5"/>
<path d="M83.872 172.84C86.112 177.768 88.592 182.604 90.492 187.66C91.584 190.56 90.596 193.984 88.796 197.232C85.996 190.876 80.604 185.816 81.6 178.268C81.836 176.476 82.496 174.736 82.96 172.976C83.264 172.932 83.568 172.884 83.872 172.84Z" fill="#FEFFD5"/>
<path d="M122.112 177.172C119.944 173.14 117.704 169.428 115.912 165.512C114.008 161.356 114.456 157.12 117.084 152.856C119.308 157.5 121.792 162.044 123.664 166.828C124.928 170.064 124.016 173.924 122.112 177.172Z" fill="#FEFFD5"/>
<path d="M188.828 177.392C186.492 172.928 184.112 168.992 182.34 164.804C180.692 160.912 181.22 156.88 183.384 152.62C185.768 157.844 189.388 161.98 190.52 167.368C191.22 170.692 190.604 173.832 188.832 177.392H188.828Z" fill="#FEFFD5"/>
<path d="M22.152 197.252C19.928 193.104 17.632 189.344 15.848 185.356C14.016 181.26 14.436 177.056 16.848 172.388C19.292 177.48 21.836 182 23.636 186.8C24.888 190.14 24.148 193.712 22.152 197.252Z" fill="#FEFFD5"/>
<path d="M22.464 122.98C24.572 126.964 26.896 130.856 28.724 134.964C30.46 138.864 29.876 143.464 27.648 147.2C24.992 141.08 19.832 136.22 20.424 129.048C20.592 127.004 21.308 125.008 21.776 122.988L22.464 122.972V122.98Z" fill="#FEFFD5"/>
<path d="M53.304 181.336C51.136 185.204 49.316 188.756 47.204 192.132C44.684 196.16 40.956 198.336 35.892 198.572C36.096 198 36.188 197.58 36.384 197.224C37.984 194.308 39.556 191.376 41.236 188.504C43.84 184.052 47.716 181.636 53.3 181.336H53.304Z" fill="#FEFFD5"/>
<path d="M83.7 132.544C86.076 137.712 88.568 142.46 90.432 147.44C91.608 150.58 90.592 153.872 88.908 157.224C88.304 156.172 87.82 155.348 87.36 154.516C85.94 151.956 84.472 149.42 83.12 146.82C80.804 142.364 80.924 136.744 83.7 132.54V132.544Z" fill="#FEFFD5"/>
<path d="M20.0519 121.38C17.5359 125.68 15.452 129.696 12.9319 133.416C10.6039 136.848 6.49595 138.588 2.25995 138.444C4.65195 134.372 6.73995 130.284 9.33595 126.552C11.6879 123.172 15.2679 121.552 20.0559 121.384L20.0519 121.38Z" fill="#FEFFD5"/>
<path d="M116.928 112.976C119.048 117.024 121.392 120.976 123.22 125.152C124.908 129.012 124.28 133.604 122.084 137.172C119.48 131.18 114.46 126.42 114.848 119.44C114.968 117.3 115.668 115.192 116.104 113.072C116.38 113.04 116.656 113.008 116.932 112.972L116.928 112.976Z" fill="#FEFFD5"/>
<path d="M42.172 141.4C39.972 145.304 38.128 148.984 35.904 152.424C33.384 156.32 29.66 158.404 24.444 158.144C27.188 153.824 29.668 149.304 32.768 145.256C34.868 142.512 38.244 141.436 42.168 141.4H42.172Z" fill="#FEFFD5"/>
<path d="M55.6 142.564C58.132 148.388 62.508 152.796 62.932 159.024C63.12 161.788 62.664 164.424 61.032 167.256C58.66 162.064 54.98 157.904 53.892 152.428C53.244 149.156 53.896 146.1 55.6 142.56V142.564Z" fill="#FEFFD5"/>
<path d="M108.908 61.3921C106.496 65.5601 104.496 69.5321 102.008 73.1761C99.572 76.7441 95.896 78.4401 91.08 78.6201C93.5 74.4401 95.492 70.4601 97.988 66.8241C100.424 63.2761 104.084 61.5281 108.904 61.3921H108.908Z" fill="#FEFFD5"/>
<path d="M91.1559 38.5961C93.3719 34.6761 95.2359 31.0081 97.4399 27.5601C99.9519 23.6361 103.696 21.6161 108.916 21.8481C106.12 26.2001 103.572 30.7481 100.436 34.8401C98.3759 37.5281 95.0479 38.528 91.1559 38.5961Z" fill="#FEFFD5"/>
<path d="M142.208 161.412C139.876 165.468 137.9 169.396 135.46 173.008C133.024 176.608 129.372 178.424 124.444 178.584C127.456 173.888 129.096 168.792 132.884 165.036C135.312 162.628 138.348 161.412 142.208 161.408V161.412Z" fill="#FEFFD5"/>
<path d="M155.504 37.3642C152.992 31.7962 149 27.4842 148.2 21.6162C147.816 18.8082 148.42 15.7402 150 13.0242C150.36 13.5642 150.696 14.0082 150.964 14.4882C152.584 17.3842 154.276 20.2402 155.772 23.1962C158.068 27.7322 158.036 32.3042 155.5 37.3642H155.504Z" fill="#FEFFD5"/>
<path d="M135.468 178.564C138.12 174.136 140.284 169.936 143.012 166.144C145.32 162.936 148.876 161.496 153.56 161.376C150.68 165.988 148.288 170.42 145.304 174.412C143.144 177.304 139.744 178.508 135.468 178.568V178.564Z" fill="#FEFFD5"/>
<path d="M86.744 41.3921C84.188 45.7121 82.048 49.8281 79.424 53.6081C77.06 57.0161 72.848 58.7081 68.924 58.3801C71.404 54.2241 73.556 50.0321 76.268 46.2361C78.596 42.9761 82.176 41.5201 86.74 41.3921H86.744Z" fill="#FEFFD5"/>
<path d="M21.692 117.076C19.472 112.276 16.956 107.584 15.136 102.636C13.968 99.4642 14.88 96.0922 16.772 92.6162C19.116 97.1682 21.608 101.28 23.384 105.68C24.872 109.364 24.308 113.264 22.424 116.836L21.692 117.076Z" fill="#FEFFD5"/>
<path d="M121.996 96.9921C119.9 93.0721 117.552 89.2601 115.776 85.2001C114.016 81.1721 114.452 77.0121 116.732 72.6321C119.476 79.0081 124.808 83.9481 123.992 91.3241C123.78 93.2441 123.1 95.1081 122.632 97.0001L121.996 96.9921Z" fill="#FEFFD5"/>
<path d="M50.136 112.904C52.236 116.748 54.392 120.28 56.14 124.004C58.14 128.264 57.896 132.604 55.512 137.336C52.976 131.784 49 127.456 48.192 121.576C47.8 118.72 48.46 115.516 50.132 112.904H50.136Z" fill="#FEFFD5"/>
<path d="M50.072 72.5601C52.576 78.3441 56.776 82.6841 57.376 88.7041C57.664 91.6001 57.076 94.3081 55.504 97.3521C52.992 91.7761 48.98 87.4601 48.204 81.5881C47.812 78.6081 48.46 75.8281 50.076 72.5601H50.072Z" fill="#FEFFD5"/>
<path d="M68.852 18.6602C71.26 14.4882 73.244 10.5842 75.668 6.9762C78.096 3.3682 81.752 1.5922 86.38 1.4082C86.172 1.9522 86.068 2.3602 85.872 2.7162C84.236 5.6802 82.644 8.6642 80.928 11.5802C78.356 15.9482 74.524 18.3202 68.856 18.6602H68.852Z" fill="#FEFFD5"/>
<path d="M155.472 77.3281C152.976 71.7481 148.92 67.4081 148.192 61.5081C147.828 58.5521 148.4 55.7641 150.076 52.7041C152.592 58.3321 156.796 62.7081 157.38 68.7841C157.652 71.6121 157.112 74.2961 155.472 77.3281Z" fill="#FEFFD5"/>
<path d="M27.736 27.3281C25.468 23.1081 23.16 19.3521 21.392 15.3601C19.58 11.2721 20.016 7.06808 22.304 2.58008C24.648 7.12008 27.076 11.1881 28.88 15.5161C30.456 19.2881 29.868 23.2161 27.74 27.3281H27.736Z" fill="#FEFFD5"/>
<path d="M88.868 162.636C91.048 166.6 93.084 170.032 94.856 173.596C97.04 177.988 96.816 182.44 94.564 187.076C94.16 186.508 93.832 186.132 93.592 185.704C91.968 182.804 90.304 179.928 88.768 176.98C86.364 172.368 86.476 167.732 88.868 162.632V162.636Z" fill="#FEFFD5"/>
<path d="M16.7039 12.7002C18.9319 16.8242 21.1599 20.4642 22.9199 24.3202C24.8439 28.5282 24.4959 32.8202 22.1719 37.3242C19.9039 33.0882 17.5599 29.2762 15.7799 25.2162C14.0159 21.1882 14.4519 17.0282 16.7039 12.7002Z" fill="#FEFFD5"/>
<path d="M17.072 52.8641C19.296 57.5081 21.832 62.0361 23.644 66.8321C24.888 70.1281 24.128 73.6601 22.224 77.2041C20.624 74.3521 19.204 71.7081 17.676 69.1281C15.844 66.0321 14.432 62.8001 14.844 59.1281C15.076 57.0601 15.728 55.0401 16.192 52.9961L17.072 52.8601V52.8641Z" fill="#FEFFD5"/>
<path d="M75.748 121.396C72.912 125.988 70.584 130.384 67.644 134.32C65.436 137.272 61.972 138.54 57.704 138.556C60.268 134.256 62.432 130.076 65.132 126.276C67.456 123.004 71.012 121.504 75.748 121.396Z" fill="#FEFFD5"/>
<path d="M186.784 181.384C184.14 185.78 181.936 190.016 179.172 193.852C176.872 197.044 173.336 198.48 168.78 198.572C171.436 194.152 173.628 189.904 176.396 186.076C178.696 182.896 182.244 181.476 186.78 181.384H186.784Z" fill="#FEFFD5"/>
<path d="M2.25995 178.6C4.45995 174.692 6.29995 171.072 8.46795 167.656C10.9759 163.712 14.7039 161.624 19.6399 161.368C19.4879 161.864 19.4399 162.228 19.2759 162.528C17.6119 165.564 15.9959 168.628 14.2279 171.604C11.6319 175.976 7.79195 178.348 2.25995 178.6Z" fill="#FEFFD5"/>
<path d="M22.32 82.78C24.524 86.888 26.832 90.644 28.604 94.632C30.424 98.724 29.976 102.928 27.336 107.132C25.108 102.416 22.62 97.8 20.744 92.948C19.516 89.772 20.436 86.084 22.32 82.78Z" fill="#FEFFD5"/>
<path d="M168.76 38.628C171.436 34.176 173.66 29.956 176.388 26.092C178.66 22.88 182.776 21.332 186.644 21.604C184.16 25.764 181.996 29.948 179.292 33.748C176.968 37.02 173.388 38.464 168.76 38.628Z" fill="#FEFFD5"/>
<path d="M127.724 47.324C125.452 43.076 123.1 39.268 121.336 35.208C119.588 31.188 120 27.024 122.66 22.876C124.888 27.58 127.408 32.176 129.24 37.028C130.464 40.268 129.632 43.728 127.724 47.324Z" fill="#FEFFD5"/>
<path d="M194.424 167.3C192.184 163.18 189.984 159.604 188.248 155.816C186.296 151.56 186.612 147.224 188.952 142.58C191.38 148.076 195.3 152.332 196.204 158.04C196.696 161.148 196.052 164.064 194.424 167.304V167.3Z" fill="#FEFFD5"/>
<path d="M122.324 62.8001C124.508 66.8521 126.768 70.5521 128.54 74.4721C130.416 78.6241 130.008 82.8721 127.7 87.4321C125.352 82.8761 122.956 78.8001 121.112 74.4841C119.524 70.7641 120.2 66.4641 122.32 62.7961L122.324 62.8001Z" fill="#FEFFD5"/>
<path d="M122.324 102.792C124.508 106.844 126.772 110.54 128.54 114.464C130.408 118.612 130.044 122.864 127.688 127.392C125.352 122.868 122.956 118.792 121.112 114.48C119.528 110.768 120.204 106.46 122.324 102.792Z" fill="#FEFFD5"/>
<path d="M186.812 61.4241C184.072 65.9081 181.788 70.2521 178.912 74.1601C176.676 77.1961 173.192 78.5161 168.772 78.5801C171.46 74.1361 173.688 69.8361 176.512 65.9721C178.78 62.8641 182.3 61.4761 186.812 61.4241Z" fill="#FEFFD5"/>
<path d="M22.748 43C24.948 47.672 27.444 52.232 29.244 57.052C30.456 60.296 29.62 63.752 27.7 67.348C24.992 61.1 19.856 56.268 20.42 49.116C20.584 47.052 21.292 45.028 21.752 42.988L22.748 43Z" fill="#FEFFD5"/>
<path d="M55.496 57.2201C53.316 53.2321 51.156 49.7001 49.408 45.9761C47.412 41.7201 47.636 37.3801 50.064 32.6841C52.608 38.3401 56.824 42.7281 57.384 48.8281C57.644 51.6521 57.14 54.3481 55.496 57.2161V57.2201Z" fill="#FEFFD5"/>
<path d="M155.464 117.312C152.964 111.728 148.908 107.388 148.188 101.48C147.828 98.5281 148.416 95.7481 150.084 92.7041C152.6 98.3401 156.812 102.72 157.38 108.804C157.644 111.628 157.116 114.312 155.464 117.312Z" fill="#FEFFD5"/>
<path d="M120.012 181.372C117.616 185.532 115.652 189.392 113.26 192.964C110.792 196.648 107.084 198.416 102.212 198.592C104.572 194.488 106.548 190.56 108.992 186.948C111.428 183.352 115.08 181.54 120.016 181.372H120.012Z" fill="#FEFFD5"/>
<path d="M116.72 32.6721C118.996 36.9401 121.336 40.7481 123.108 44.8081C124.864 48.8321 124.404 52.9841 122.424 56.8921L121.728 57.1401C119.492 52.2961 116.964 47.5641 115.124 42.5761C113.976 39.4641 114.908 36.1361 116.724 32.6721H116.72Z" fill="#FEFFD5"/>
<path d="M35.552 158.108C38.324 153.784 40.844 149.268 43.952 145.2C46.02 142.492 49.364 141.488 53.132 141.38C52.824 142.044 52.62 142.552 52.36 143.024C50.784 145.876 49.256 148.76 47.588 151.56C44.996 155.908 41.196 158.328 36.148 158.584L35.552 158.108Z" fill="#FEFFD5"/>
<path d="M188.832 57.356C186.02 50.928 180.664 45.92 181.592 38.456C181.82 36.608 182.484 34.816 182.948 33L183.896 32.884C186.128 37.82 188.648 42.652 190.492 47.728C191.596 50.772 190.584 54.008 188.832 57.36V57.356Z" fill="#FEFFD5"/>
<path d="M88.86 117.308C86.624 113.184 84.388 109.548 82.64 105.692C80.732 101.488 81.048 97.1842 83.168 93.0922L83.876 92.8562C86.112 97.7842 88.628 102.608 90.48 107.676C91.6 110.736 90.572 113.976 88.86 117.304V117.308Z" fill="#FEFFD5"/>
<path d="M102.248 118.624C104.456 114.7 106.308 111.024 108.52 107.584C111.032 103.676 114.756 101.596 119.872 101.38C119.416 102.248 119.112 102.864 118.78 103.46C117.272 106.188 115.82 108.952 114.224 111.628C111.628 115.98 107.788 118.34 102.248 118.624Z" fill="#FEFFD5"/>
<path d="M175.652 141.356C173.056 145.74 170.908 149.852 168.292 153.644C165.976 156.996 161.616 158.736 157.912 158.352C160.132 154.492 162.104 150.58 164.532 146.976C166.956 143.38 170.608 141.584 175.652 141.356Z" fill="#FEFFD5"/>
<path d="M157.732 198.564C160.216 194.34 162.312 190.276 164.884 186.54C167.312 183.02 171.544 181.252 175.552 181.604C172.968 185.876 170.74 190.176 167.904 194.036C165.632 197.132 162.112 198.512 157.728 198.56L157.732 198.564Z" fill="#FEFFD5"/>
<path d="M160.856 146.96C158.624 141.892 154.7 137.64 153.8 131.928C153.308 128.82 153.952 125.912 155.596 122.632C158.584 129.26 164.044 134.436 162.796 142.144C162.532 143.788 161.9 145.372 161.436 146.984L160.856 146.956V146.96Z" fill="#FEFFD5"/>
<path d="M88.872 122.652C91.052 126.616 93.088 130.048 94.856 133.612C97.036 138 96.808 142.448 94.556 147.084C94.148 146.508 93.82 146.128 93.58 145.7C91.928 142.744 90.204 139.82 88.668 136.8C86.348 132.244 86.492 127.656 88.868 122.652H88.872Z" fill="#FEFFD5"/>
<path d="M186.82 141.396C184.08 145.884 181.796 150.228 178.92 154.136C176.684 157.172 173.2 158.508 168.748 158.568C171.496 154.064 173.772 149.712 176.652 145.812C178.888 142.78 182.388 141.464 186.82 141.4V141.396Z" fill="#FEFFD5"/>
<path d="M153.396 121.332C150.924 125.58 148.888 129.62 146.336 133.304C143.956 136.74 140.36 138.444 135.648 138.584C136.228 137.524 136.652 136.748 137.084 135.972C138.504 133.412 139.852 130.812 141.364 128.304C143.976 123.964 147.832 121.652 153.4 121.332H153.396Z" fill="#FEFFD5"/>
<path d="M142.3 121.408C139.736 125.708 137.576 129.888 134.876 133.692C132.552 136.968 128.996 138.476 124.248 138.588C127.092 133.984 129.424 129.592 132.364 125.656C134.572 122.7 138.04 121.448 142.3 121.412V121.408Z" fill="#FEFFD5"/>
<path d="M75.524 161.376C73.272 165.364 71.408 169.052 69.176 172.5C66.648 176.408 62.892 178.412 57.78 178.596C60.108 174.528 62.052 170.66 64.44 167.088C66.9 163.408 70.588 161.552 75.524 161.376Z" fill="#FEFFD5"/>
<path d="M86.552 161.512C84.44 165.264 82.6 168.868 80.444 172.272C77.908 176.272 74.148 178.376 68.688 178.612C71.528 174.004 73.872 169.636 76.776 165.672C78.98 162.664 82.74 161.416 86.556 161.512H86.552Z" fill="#FEFFD5"/>
<path d="M83.88 12.8722C86.116 17.8002 88.632 22.6282 90.484 27.6962C91.6 30.7522 90.572 33.9962 88.844 37.3522C85.988 30.9042 80.604 25.8362 81.604 18.2922C81.84 16.5002 82.5 14.7682 82.964 13.0042L83.884 12.8682L83.88 12.8722Z" fill="#FEFFD5"/>
<path d="M88.704 77.2322C86.428 72.8122 83.932 68.7082 82.168 64.3122C80.692 60.6322 81.24 56.7322 83.38 52.7002C85.856 58.0122 89.624 62.2762 90.64 67.9122C91.18 70.8962 90.48 74.4042 88.704 77.2322Z" fill="#FEFFD5"/>
<path d="M20.208 81.3882C17.34 86.0162 14.996 90.3962 12.068 94.3442C9.79998 97.4002 6.03598 98.6162 2.26398 98.4362C4.63998 94.3842 6.71998 90.3082 9.30398 86.5842C11.68 83.1642 15.284 81.5362 20.204 81.3882H20.208Z" fill="#FEFFD5"/>
<path d="M188.86 137.3C186.624 133.172 184.384 129.536 182.636 125.68C180.728 121.472 181.068 117.172 183.16 113.08L183.88 112.852C186.116 117.784 188.632 122.612 190.484 127.684C191.6 130.74 190.58 133.98 188.86 137.3Z" fill="#FEFFD5"/>
<path d="M183.876 72.8601C186.112 77.7841 188.596 82.6121 190.488 87.6641C191.58 90.5761 190.604 93.9801 188.8 97.2441C185.992 90.8921 180.608 85.8361 181.6 78.2961C181.836 76.5041 182.492 74.7641 182.956 73.0041L183.876 72.8641V72.8601Z" fill="#FEFFD5"/>
<path d="M155.624 42.5641C158.028 47.2081 160.428 51.2641 162.256 55.5641C163.82 59.2401 163.056 63.8801 160.956 67.1401C158.64 62.0161 154.876 57.8201 153.856 52.2521C153.268 49.0481 153.916 46.0561 155.62 42.5601L155.624 42.5641Z" fill="#FEFFD5"/>
<path d="M60.928 47.12C58.616 41.94 54.748 37.692 53.808 32.012C53.292 28.888 53.964 25.968 55.488 22.832C55.964 23.596 56.32 24.112 56.624 24.66C58.208 27.504 59.836 30.324 61.34 33.208C63.656 37.656 63.516 43.364 60.928 47.12Z" fill="#FEFFD5"/>
<path d="M189.148 23.04C191.38 28.112 195.308 32.364 196.204 38.076C196.692 41.184 196.028 44.084 194.404 47.392C191.456 40.776 186.028 35.668 187.184 28.036C187.436 26.368 188.024 24.748 188.456 23.108L189.148 23.044V23.04Z" fill="#FEFFD5"/>
<path d="M94.384 107.424C91.856 101.564 87.484 97.1681 87.068 90.9401C86.884 88.1801 87.336 85.5441 88.976 82.7161C91.356 87.9761 95.116 92.1681 96.14 97.7361C96.728 100.94 96.084 103.932 94.384 107.424Z" fill="#FEFFD5"/>
<path d="M68.844 138.596C71.32 134.356 73.372 130.336 75.908 126.652C78.316 123.156 81.98 121.556 86.704 121.356C84.28 125.54 82.276 129.512 79.784 133.152C77.352 136.708 73.7 138.452 68.84 138.596H68.844Z" fill="#FEFFD5"/>
<path d="M135.528 18.624C137.972 14.396 139.952 10.468 142.412 6.868C144.856 3.284 148.536 1.552 153.356 1.396C150.952 5.548 148.948 9.528 146.456 13.176C144.052 16.7 140.416 18.436 135.528 18.624Z" fill="#FEFFD5"/>
<path d="M55.576 102.68C57.816 106.8 60.012 110.376 61.752 114.16C63.712 118.416 63.38 122.744 61.052 127.412C58.616 121.9 54.708 117.644 53.8 111.94C53.304 108.828 53.948 105.92 55.576 102.676V102.68Z" fill="#FEFFD5"/>
<path d="M189.144 103.02C191.38 108.088 195.3 112.34 196.204 118.052C196.696 121.164 196.024 124.068 194.416 127.376C191.424 120.724 185.96 115.552 187.204 107.84C187.468 106.196 188.1 104.608 188.564 102.996L189.144 103.024V103.02Z" fill="#FEFFD5"/>
<path d="M94.372 27.4361C91.844 21.5401 87.448 17.1401 87.056 10.9001C86.884 8.1401 87.4 5.5281 88.96 2.6521C91.384 8.0681 95.236 12.3241 96.188 17.9961C96.712 21.1201 96.052 24.0481 94.376 27.4361H94.372Z" fill="#FEFFD5"/>
<path d="M94.368 67.2961C91.456 60.7761 86.036 55.6601 87.184 48.0321C87.436 46.3601 88.024 44.7401 88.776 43.0681C91.5 48.2441 95.576 52.6561 96.284 58.6641C96.624 61.5481 96.016 64.2921 94.368 67.3001V67.2961Z" fill="#FEFFD5"/>
<path d="M161.124 27.352C158.928 23.34 156.844 19.856 155.072 16.224C152.96 11.892 153.196 7.48804 155.448 2.93604C155.836 3.47604 156.168 3.85203 156.404 4.27603C158.056 7.23204 159.776 10.16 161.316 13.176C163.64 17.732 163.504 22.32 161.124 27.352Z" fill="#FEFFD5"/>
<path d="M186.62 101.416C184.388 105.364 182.512 109.104 180.24 112.584C177.74 116.408 174.024 118.412 168.908 118.604C171.9 113.884 173.564 108.756 177.404 104.984C179.796 102.632 182.792 101.448 186.624 101.416H186.62Z" fill="#FEFFD5"/>
<path d="M194.384 87.3562C191.84 81.5962 187.508 77.1922 187.068 70.9802C186.872 68.2202 187.332 65.5802 188.956 62.7322C191.424 68.0762 195.288 72.3682 196.204 78.1002C196.696 81.1922 196.06 84.1002 194.384 87.3602V87.3562Z" fill="#FEFFD5"/>
<path d="M35.5479 78.1201C38.3199 73.7961 40.8399 69.2761 43.9479 65.2121C46.0159 62.5081 49.3519 61.4841 53.2519 61.4041C52.8039 62.2121 52.4759 62.8001 52.1479 63.3881C50.6279 66.1201 49.1759 68.8961 47.5799 71.5801C44.9879 75.9321 41.1759 78.3201 36.1439 78.6041L35.5439 78.1201H35.5479Z" fill="#FEFFD5"/>
<path d="M53.3 21.376C51.136 25.228 49.312 28.776 47.208 32.152C44.692 36.188 40.952 38.348 35.936 38.616C36.08 38.124 36.12 37.756 36.284 37.456C37.948 34.424 39.556 31.356 41.324 28.384C43.92 24.028 47.76 21.644 53.296 21.376H53.3Z" fill="#FEFFD5"/>
<path d="M153.288 81.396C151.116 85.26 149.276 88.876 147.112 92.288C144.584 96.284 140.832 98.372 135.432 98.64C138.116 94.156 140.28 89.956 143.008 86.16C145.316 82.952 148.872 81.508 153.288 81.396Z" fill="#FEFFD5"/>
<path d="M155.588 82.668C157.872 86.908 160.152 90.592 161.892 94.516C163.72 98.644 163.36 102.88 161.044 107.38C158.62 101.916 154.72 97.668 153.804 91.972C153.304 88.856 153.944 85.94 155.588 82.668Z" fill="#FEFFD5"/>
<path d="M35.54 118.484C38.088 114.196 40.204 110.04 42.884 106.288C45.224 103.012 48.804 101.496 53.468 101.396C50.776 105.832 48.524 110.12 45.716 114.004C43.42 117.18 39.908 118.444 35.54 118.488V118.484Z" fill="#FEFFD5"/>
<path d="M102.12 78.6401C104.676 74.3241 106.812 70.1881 109.456 66.4041C111.828 63.0161 115.54 61.5201 119.608 61.5161C119.484 61.9001 119.424 62.2681 119.256 62.5721C117.588 65.6081 115.972 68.6721 114.204 71.6481C111.604 76.0241 107.736 78.3561 102.116 78.6401H102.12Z" fill="#FEFFD5"/>
<path d="M61.012 87.3281C58.608 81.8841 54.68 77.6281 53.792 71.9161C53.308 68.8161 53.948 65.9121 55.604 62.6401C58.156 68.3961 62.48 72.8001 62.928 79.0081C63.128 81.7681 62.664 84.4121 61.008 87.3281H61.012Z" fill="#FEFFD5"/>
<path d="M68.972 98.48C71.208 94.56 73.124 90.768 75.444 87.244C77.92 83.48 81.636 81.592 86.648 81.376C83.672 86.084 81.996 91.196 78.176 94.984C75.7 97.44 72.7 98.496 68.972 98.48Z" fill="#FEFFD5"/>
<path d="M175.644 61.3801C173.056 65.7561 170.948 69.9001 168.284 73.6481C165.924 76.9641 162.328 78.5081 157.788 78.5921C160.124 74.5201 162.092 70.6081 164.52 67.0081C166.972 63.3721 170.652 61.5681 175.644 61.3841V61.3801Z" fill="#FEFFD5"/>
<path d="M2.17999 58.6481C4.59599 54.4761 6.62399 50.5041 9.09199 46.8321C11.512 43.2281 15.54 41.4401 19.78 41.5521C19.08 42.8561 18.448 44.0561 17.792 45.2401C16.564 47.4521 15.392 49.7001 14.072 51.8561C11.46 56.1241 7.62799 58.3601 2.17999 58.6481Z" fill="#FEFFD5"/>
<path d="M24.384 118.624C26.896 114.328 28.94 110.304 31.488 106.62C33.868 103.176 37.5 101.556 42.16 101.368C41.672 102.252 41.316 102.896 40.956 103.54C39.44 106.264 38.008 109.04 36.392 111.704C33.812 115.956 30.04 118.324 24.384 118.62V118.624Z" fill="#FEFFD5"/>
<path d="M42.112 21.5242C39.976 25.3242 38.128 29.0002 35.908 32.4402C33.392 36.3442 29.656 38.4122 24.444 38.6242C27.416 33.9402 29.104 28.9002 32.82 25.1122C35.28 22.6042 38.436 21.4802 42.108 21.5242H42.112Z" fill="#FEFFD5"/>
<path d="M124.476 58.588C126.756 54.572 128.644 50.84 130.916 47.356C133.42 43.516 137.164 41.576 142.368 41.384C139.672 45.836 137.436 50.116 134.628 53.988C132.36 57.112 128.852 58.496 124.48 58.588H124.476Z" fill="#FEFFD5"/>
<path d="M135.528 58.6002C138 54.3442 140.004 50.3522 142.524 46.7162C144.948 43.2202 148.596 41.5122 153.38 41.4082C150.896 45.6402 148.816 49.7282 146.216 53.4562C143.868 56.8242 140.292 58.4522 135.528 58.6002Z" fill="#FEFFD5"/>
<path d="M157.768 118.652C160.076 114.592 161.984 110.796 164.308 107.272C166.78 103.524 170.468 101.58 175.256 101.388C175.044 101.948 174.94 102.364 174.74 102.728C173.108 105.692 171.516 108.68 169.796 111.592C167.216 115.968 163.36 118.296 157.768 118.648V118.652Z" fill="#FEFFD5"/>
<path d="M102.252 38.5561C104.564 34.5321 106.532 30.6001 108.976 26.9921C111.412 23.3961 115.06 21.5721 120.02 21.4001C116.876 26.1921 115.308 31.4841 111.26 35.2241C108.856 37.4481 105.936 38.6121 102.252 38.5561Z" fill="#FEFFD5"/>
<path d="M24.364 78.6161C26.948 74.2441 29.052 70.1001 31.72 66.3521C34.08 63.0361 37.68 61.4921 42.216 61.4121C39.88 65.4761 37.916 69.3921 35.484 72.9921C33.032 76.6281 29.36 78.4401 24.364 78.6161Z" fill="#FEFFD5"/>
<path d="M142.108 1.53619C140 5.28019 138.16 8.88419 136.008 12.2882C133.476 16.2882 129.72 18.4002 124.44 18.1882C127.184 13.8682 129.668 9.35219 132.756 5.29219C134.904 2.46419 138.424 1.46819 142.112 1.53619H142.108Z" fill="#FEFFD5"/>
<path d="M75.66 81.344C73.048 85.756 70.94 89.9 68.272 93.648C65.912 96.96 62.316 98.496 57.792 98.592C60.092 94.56 62.032 90.712 64.4 87.144C66.844 83.46 70.532 81.62 75.66 81.344Z" fill="#FEFFD5"/>
<path d="M75.44 1.56809C73.244 5.43609 71.352 9.16409 69.084 12.6521C66.584 16.4961 62.832 18.4201 57.572 18.6401C60.388 14.0721 62.728 9.70409 65.636 5.74809C67.896 2.67209 71.588 1.43609 75.44 1.56809Z" fill="#FEFFD5"/>
<path d="M20.0199 1.40405C17.5799 5.62005 15.6039 9.55205 13.1439 13.1561C10.6959 16.7441 7.00395 18.4721 2.20795 18.6161C4.59595 14.4881 6.59995 10.5041 9.09595 6.85205C11.5039 3.32805 15.1279 1.56805 20.0199 1.40405Z" fill="#FEFFD5"/>
<path d="M175.476 21.552C173.184 25.536 171.22 29.376 168.852 32.948C166.396 36.652 162.668 38.388 157.496 38.672C160.456 33.956 162.892 29.496 165.908 25.472C168.1 22.544 171.644 21.46 175.476 21.552Z" fill="#FEFFD5"/>
<path d="M142.248 81.376C139.848 85.528 137.848 89.496 135.36 93.14C132.928 96.7 129.284 98.456 124.348 98.596C126.98 94.188 129.132 89.992 131.848 86.2C134.18 82.944 137.772 81.524 142.248 81.376Z" fill="#FEFFD5"/>
<path d="M57.788 58.5921C60.124 54.5281 62.092 50.6161 64.52 47.0121C66.972 43.3721 70.648 41.5641 75.668 41.3801C73.024 45.8161 70.876 50.0161 68.152 53.8001C65.82 57.0401 62.248 58.5161 57.788 58.5921Z" fill="#FEFFD5"/>
</g>
<defs>
<clipPath id="clip0_205_4995">
<rect width="200" height="200" fill="white"/>
</clipPath>
</defs>
</svg>
